<svg width="32" height="33" viewBox="0 0 32 33" fill="none" xmlns="http://www.w3.org/2000/svg">
<g clip-path="url(#clip0_2003_13)">
<path d="M16 0.450684C7.16352 0.450684 0 7.6142 0 16.4507C0 23.954 5.16608 30.2504 12.135 31.9796V21.3403H8.83584V16.4507H12.135V14.3438C12.135 8.89804 14.5997 6.37388 19.9462 6.37388C20.96 6.37388 22.7091 6.57292 23.4246 6.77132V11.2033C23.047 11.1636 22.391 11.1438 21.5763 11.1438C18.953 11.1438 17.9392 12.1377 17.9392 14.7214V16.4507H23.1654L22.2675 21.3403H17.9392V32.3336C25.8618 31.3768 32.0006 24.6312 32.0006 16.4507C32 7.6142 24.8365 0.450684 16 0.450684Z" fill="#0F0F0F"/>
</g>
<defs>
<clipPath id="clip0_2003_13">
<rect width="32.0006" height="32" fill="white" transform="translate(0 0.450684)"/>
</clipPath>
</defs>
</svg>
