<svg width="50" height="61" viewBox="0 0 50 61" fill="none" xmlns="http://www.w3.org/2000/svg">
<path d="M8.40183 0.752407C8.58448 0.752407 8.70624 0.780452 8.76712 0.836543C8.76712 0.836543 8.61492 0.724362 8.3105 0.5C8.49315 0.55609 8.6758 0.612181 8.85845 0.668271C9.10198 0.724362 9.31507 0.808499 9.49772 0.920683C10.0457 1.14504 10.5632 1.45355 11.0502 1.84619C11.5982 2.18273 12.1461 2.51928 12.6941 2.85583C13.4855 3.30455 14.277 3.75328 15.0685 4.20201C15.86 4.65074 16.6514 5.09947 17.4429 5.5482C17.4429 5.5482 17.4429 5.57625 17.4429 5.63234C17.5038 5.63234 17.5647 5.63234 17.6256 5.63234C17.6256 5.68843 17.6256 5.71648 17.6256 5.71648C17.6865 5.71648 17.7169 5.74452 17.7169 5.80061C18.9954 6.86634 20.4566 7.73576 22.1005 8.40885C23.7443 9.02585 25.4186 9.64286 27.1233 10.2599C28.828 10.8769 30.2892 11.7743 31.5069 12.9522C33.0898 14.1301 34.7641 15.2239 36.5297 16.2336C38.2953 17.2432 39.9391 18.3931 41.4612 19.6832C42.3135 20.2441 43.2268 20.833 44.2009 21.45C45.175 22.011 46.0883 22.5999 46.9406 23.2169C47.3059 23.4413 47.7017 23.6937 48.1279 23.9741C48.554 24.1985 48.8889 24.5351 49.1324 24.9838C49.4368 25.3764 49.6195 25.7971 49.6804 26.2458C49.8021 26.6946 49.8935 27.1433 49.9543 27.592C50.0152 27.7603 50.0152 27.9286 49.9543 28.0968C49.9543 28.2651 49.9543 28.4334 49.9543 28.6017C49.9543 28.6578 49.9239 28.7138 49.863 28.7699C49.863 28.826 49.863 28.9102 49.863 29.0223C49.8021 29.9198 49.7413 30.7892 49.6804 31.6306C49.6195 32.472 49.2846 33.2572 48.6758 33.9864C48.2496 34.5473 47.6712 35.0241 46.9406 35.4167C46.21 35.7533 45.5099 36.0618 44.8402 36.3422C44.1096 36.7349 43.4094 37.1275 42.7397 37.5202C42.07 37.8567 41.4003 38.2493 40.7306 38.6981C39.2085 39.8199 37.5647 40.8295 35.7991 41.727C34.0335 42.6245 32.4201 43.6902 30.9589 44.9242C29.3151 46.4387 27.4581 47.7848 25.3881 48.9628C23.379 50.0846 21.5525 51.4027 19.9087 52.9172C19.9087 52.9172 19.9087 52.9452 19.9087 53.0013C19.9087 53.0013 19.8782 53.0013 19.8174 53.0013L19.726 53.0855C18.7519 53.7585 17.7169 54.4316 16.621 55.1047C15.586 55.7778 14.551 56.4229 13.516 57.0399C12.7854 57.4886 12.0244 57.9373 11.2329 58.3861C10.5023 58.8348 9.71081 59.1994 8.85845 59.4798C8.37139 59.7042 7.88433 59.592 7.39726 59.1433C7.33638 59.0311 7.2755 58.947 7.21461 58.8909C7.21461 58.8348 7.18417 58.7787 7.12329 58.7226L5.84475 59.3116L4.56621 59.8164L3.19635 60.4053C3.0137 60.5736 2.83105 60.5175 2.6484 60.2371C2.52663 60.1249 2.55708 59.9847 2.73973 59.8164H2.55708C2.31355 59.8725 2.1309 59.7883 2.00914 59.564C2.00914 59.3396 2.10046 59.1994 2.28311 59.1433L3.92694 58.7226L5.47945 58.3019L6.66667 57.9654C6.17961 57.6288 5.78387 57.2362 5.47945 56.7875L3.83562 57.3764L1.09589 58.3861C0.913246 58.5543 0.730595 58.4982 0.547947 58.2178C0.426178 57.9934 0.487064 57.8252 0.730595 57.713L2.10046 57.124L3.56165 56.7033L5.20548 56.1144C5.1446 55.8339 5.1446 55.5815 5.20548 55.3571L3.74429 55.9461L2.28311 56.3668L0.913242 56.7033C0.669712 56.7594 0.487064 56.6753 0.365299 56.4509C0.365299 56.2266 0.456627 56.0863 0.639275 56.0302L2.10046 55.6096L3.47032 55.273L5.29681 54.5158V53.8427L3.83562 54.4316L2.28311 54.8523L1.00457 55.273C0.76104 55.3291 0.578388 55.273 0.456623 55.1047C0.334858 54.8804 0.426182 54.7121 0.730595 54.5999L2.00914 54.0951H2.10046L3.56165 53.7585L5.29681 53.0013V52.833C5.29681 52.5526 5.26637 52.3282 5.20548 52.16L2.28311 53.5061H2.19178L0.821918 53.8427C0.578388 53.8988 0.395741 53.8146 0.273975 53.5903C0.273975 53.3659 0.365295 53.2257 0.547947 53.1696L1.91781 52.7489L3.379 52.16L4.84018 51.4869C4.84018 51.4869 4.87063 51.4869 4.93151 51.4869C4.99239 51.4869 5.11416 51.4588 5.29681 51.4027V50.7296L4.10959 51.2344L2.46576 51.6551L0.913242 52.16C0.669712 52.216 0.487064 52.16 0.365299 51.9917C0.243534 51.7673 0.334858 51.599 0.639275 51.4869L2.19178 50.8979H2.28311L3.83562 50.5614L5.11416 49.9724H5.20548V49.3834L3.65297 49.8041L2.19178 50.3931L0.730595 50.8138C0.487064 50.8699 0.304417 50.8138 0.182652 50.6455C0.0608864 50.4211 0.152206 50.2529 0.456623 50.1407L1.82648 49.6358L3.379 49.131L5.20548 48.5421V47.9531L3.83562 48.4579L2.37443 49.131L0.730595 49.6358C0.487064 49.6919 0.304417 49.6358 0.182652 49.4676C0.0608864 49.2432 0.152206 49.0749 0.456623 48.9628L3.56165 47.7848L5.11416 47.1117V46.1021L3.74429 46.4387L2.37443 47.0276H2.28311L0.730595 47.3642C0.487064 47.4202 0.304417 47.3361 0.182652 47.1117C0.182652 46.8874 0.273975 46.7472 0.456623 46.6911L2.10046 46.2704L3.47032 45.7656L5.11416 45.2607V44.8401L3.92694 45.3449L2.37443 45.7656L1.09589 46.1021C0.852364 46.1582 0.669712 46.1021 0.547947 45.9338C0.547947 45.6534 0.639271 45.4851 0.821918 45.429L2.19178 45.0083L3.65297 44.6718L5.02283 44.0828V43.3256L3.83562 43.8304L2.37443 44.5035L0.730595 45.0083C0.487064 45.0644 0.304417 45.0083 0.182652 44.8401C0.0608864 44.6157 0.152206 44.4474 0.456623 44.3352L2.00914 43.7463L3.47032 43.1573L4.93151 42.4842H5.02283C5.02283 42.2599 5.02283 42.0635 5.02283 41.8953C5.08372 41.6709 5.1446 41.4465 5.20548 41.2222L4.65754 41.4746H4.56621L3.10503 41.8111L1.73516 42.2318C1.67428 42.2879 1.58296 42.2879 1.46119 42.2318C1.33942 42.1196 1.27854 42.0355 1.27854 41.9794C1.15677 41.755 1.2481 41.5868 1.55251 41.4746L2.83105 41.138L3.83562 40.8856L3.56165 40.6332C3.43988 40.4089 3.5312 40.2406 3.83562 40.1284L5.11416 39.6236L6.0274 39.3712C6.0274 39.259 6.05784 39.2029 6.11872 39.2029C6.11872 39.1468 6.11872 39.1188 6.11872 39.1188C6.1796 39.0627 6.21005 39.0346 6.21005 39.0346C6.51446 38.642 6.87976 38.3335 7.30594 38.1091C7.73212 37.8287 8.12786 37.5762 8.49315 37.3519C9.22375 36.8471 9.95434 36.3703 10.6849 35.9216C11.4155 35.4728 12.1766 35.0241 12.968 34.5754C12.968 34.4632 13.1202 34.3791 13.4247 34.323C13.6682 34.2108 13.8813 34.0986 14.0639 33.9864C14.3075 33.8742 14.5205 33.7621 14.7032 33.6499C14.7641 33.4816 15.0076 33.3694 15.4338 33.3133C16.6515 32.6963 17.8691 32.0793 19.0868 31.4623C20.3653 30.8453 21.583 30.1722 22.7397 29.443C22.8006 29.3869 22.8311 29.3589 22.8311 29.3589L21.2785 29.8637L19.9087 30.5368L18.2648 31.1258C18.0822 31.294 17.8995 31.2379 17.7169 30.9575C17.5951 30.7331 17.6865 30.5649 17.9909 30.4527L19.5434 29.8637L20.9132 29.1906H21.0046L22.4658 28.6017H22.5571L22.8311 28.5175L22.2831 28.2651L21.2785 28.6017L19.9087 29.1065L18.3562 29.6954H18.2648L16.8037 30.1161C16.5601 30.1161 16.3775 30.032 16.2557 29.8637C16.2557 29.5833 16.3775 29.415 16.621 29.3589L18.0822 28.9382L19.6347 28.4334L20.9132 27.8444C20.9741 27.8444 21.1263 27.8164 21.3699 27.7603C21.309 27.7042 21.2177 27.6481 21.0959 27.592C20.9741 27.5359 20.8524 27.4798 20.7306 27.4238L19.8174 27.7603L16.895 28.6017L15.3425 29.0223C15.0381 29.1345 14.8858 29.0504 14.8858 28.7699C14.825 28.4895 14.9163 28.3212 15.1598 28.2651L16.621 27.8444L18.0822 27.5079L19.8174 26.9189C19.7565 26.8628 19.6651 26.8067 19.5434 26.7507C19.4216 26.6946 19.2999 26.6385 19.1781 26.5824L18.4475 26.8348L17.169 27.2555L15.6164 27.9286L14.0639 28.3493C13.7595 28.4614 13.6073 28.3773 13.6073 28.0968C13.4855 27.8725 13.5769 27.7042 13.8813 27.592L15.3425 27.2555L16.8037 26.5824L18.1735 26.0776C18.1126 26.0215 17.9604 25.9373 17.7169 25.8252L16.895 26.0776L15.2511 26.4982L13.8813 27.0031L12.3288 27.5079C12.2679 27.564 12.1766 27.564 12.0548 27.5079C11.933 27.3957 11.8722 27.3116 11.8722 27.2555C11.7504 27.0311 11.8113 26.8628 12.0548 26.7507L13.6073 26.33L14.9772 25.741H15.0685L16.8037 25.3203C16.5601 25.2082 16.3775 25.096 16.2557 24.9838L15.4338 25.3203L14.1553 25.8252L12.6027 26.2458L11.0502 26.8348C10.8067 26.8909 10.6241 26.8067 10.5023 26.5824C10.3805 26.4141 10.4414 26.2739 10.6849 26.1617L12.3288 25.5727L13.79 25.0679L15.3425 24.5631C15.2816 24.4509 15.1598 24.3668 14.9772 24.3107C14.8554 24.2546 14.7336 24.1985 14.6119 24.1424L13.9726 24.3107L12.4201 24.8997L10.9589 25.4886L9.40639 25.9934C9.16286 26.0495 8.98021 25.9654 8.85845 25.741C8.73668 25.5167 8.82801 25.3484 9.13242 25.2362L10.6849 24.8155L12.0548 24.2266V24.1424L13.6986 23.6376C13.4551 23.5254 13.2725 23.4132 13.1507 23.3011L12.6027 23.4693L11.2329 23.9741H11.1416L9.58904 24.3948L8.21918 24.8997C7.97565 24.9557 7.793 24.8996 7.67123 24.7314C7.54947 24.507 7.61036 24.3387 7.85389 24.2266L9.31507 23.6376H9.40639L10.9589 23.2169L12.1461 22.7962L11.5982 22.5438L10.9589 22.628L9.68037 23.3011L8.40183 23.8059L8.3105 23.89L6.84932 24.2266C6.60579 24.2826 6.42314 24.1985 6.30137 23.9741C6.17961 23.6937 6.27093 23.5535 6.57535 23.5535L8.03653 23.1328L9.31507 22.628L10.5936 22.039C10.4718 21.9829 10.3501 21.8988 10.2283 21.7866L9.58904 22.039H9.49772L8.12786 22.4597L6.57535 22.9645L5.20548 23.4693C4.96195 23.5254 4.7793 23.4693 4.65754 23.3011C4.53577 23.0767 4.62709 22.9084 4.93151 22.7962L6.30137 22.2073L7.85389 21.7025L9.22375 21.3659C9.0411 21.1976 8.70624 21.0855 8.21918 21.0294L6.75799 21.6183L5.47945 22.2914H5.38813L3.83562 22.7121C3.59209 22.7682 3.40944 22.7121 3.28767 22.5438C3.28767 22.2634 3.379 22.0951 3.56165 22.039L5.11416 21.5342L6.3927 20.9452H6.48402L7.76256 20.4404L7.03197 19.7673C6.9102 19.6551 6.81887 19.5429 6.75799 19.4308L4.74886 20.3563C4.74886 20.3563 4.71842 20.3563 4.65754 20.3563C4.65754 20.3563 4.65754 20.3843 4.65754 20.4404L3.10503 20.777L1.64384 21.45C1.40031 21.5622 1.21766 21.5061 1.09589 21.2818C0.974129 21.0574 1.06545 20.8891 1.36986 20.777L2.73973 20.1039H2.83105L4.38356 19.6832L6.3927 18.7577C6.27093 18.4772 6.14917 18.2248 6.0274 18.0004C5.90564 17.7761 5.69254 17.5517 5.38813 17.3273L4.10959 17.6639L2.6484 18.2528H2.55708L1.18722 18.5894C0.943687 18.6455 0.76104 18.5613 0.639275 18.337C0.639275 18.1126 0.730595 17.9724 0.913242 17.9163L2.37443 17.4956L3.83562 16.9908L5.20548 16.5701L5.6621 16.4018C5.6621 16.1214 5.54034 15.9251 5.29681 15.8129L3.74429 16.4018L2.19178 16.8225L0.639275 17.3273C0.395741 17.3834 0.213089 17.3273 0.0913239 17.1591C-0.0304413 16.9347 0.0608864 16.7664 0.365299 16.6542L1.91781 16.0653H2.00914L3.47032 15.7287L5.02283 15.1398L5.47945 14.9715C5.47945 14.8032 5.38813 14.635 5.20548 14.4667C5.1446 14.4667 5.11416 14.4947 5.11416 14.5508L3.65297 14.8874L2.19178 15.5605L0.821918 16.1494C0.639271 16.3177 0.456623 16.2616 0.273975 15.9812C0.213093 15.8129 0.273975 15.6446 0.456623 15.4763L1.82648 14.8032L3.28767 14.2143H3.379L5.29681 13.6253C5.23592 13.5131 5.20548 13.3729 5.20548 13.2046C5.20548 13.0364 5.17504 12.8681 5.11416 12.6998L3.56165 13.3729L2.10046 13.8777L0.639275 14.2984C0.395741 14.3545 0.213089 14.2984 0.0913239 14.1301C0.0913239 13.8497 0.182652 13.6814 0.365299 13.6253L1.82648 13.1205L3.28767 12.6998L4.84018 12.0267H4.93151L5.11416 11.9426C5.05328 11.8304 5.02283 11.606 5.02283 11.2695L3.74429 11.6902L2.37443 12.3633L0.913242 12.8681C0.669712 12.9803 0.487064 12.9242 0.365299 12.6998C0.243534 12.4755 0.334858 12.3072 0.639275 12.195L3.379 11.0171H3.47032L4.84018 10.5123H4.93151V10.0916L4.01827 10.4281L2.46576 10.8488L1.09589 11.2695C0.852364 11.3256 0.669712 11.2695 0.547947 11.1012C0.426178 10.8769 0.517506 10.7086 0.821918 10.5964L2.19178 10.0916H2.28311L3.74429 9.75504L4.84018 9.33435C4.84018 9.16608 4.80974 9.02585 4.74886 8.91367C4.74886 8.7454 4.74886 8.60517 4.74886 8.49299L3.56165 8.99781L2.19178 9.6709H2.10046L0.547947 10.0916C0.304413 10.1477 0.121769 10.0916 0 9.92331C0 9.64286 0.0913277 9.47458 0.273975 9.41849L1.82648 8.91367L4.74886 7.73576C4.74886 7.62357 4.71842 7.51139 4.65754 7.39921C4.65754 7.23094 4.65754 7.06266 4.65754 6.89439L3.83562 7.23094L2.28311 7.81989L0.913242 8.40885C0.730595 8.57713 0.547947 8.52103 0.365299 8.24057C0.304417 8.0723 0.365295 7.90403 0.547947 7.73576L1.91781 7.1468V7.06266L3.56165 6.55784L4.65754 6.13716V5.46406L3.74429 5.71648L2.46576 6.22129L0.913242 6.72612C0.669712 6.78221 0.487064 6.72612 0.365299 6.55784C0.243534 6.33348 0.334858 6.1652 0.639275 6.05302L2.10046 5.46406L4.56621 4.70683V4.53856C4.50533 4.42638 4.47489 4.28615 4.47489 4.11788L2.55708 4.70683L1.27854 5.04338C1.03501 5.09947 0.852364 5.04338 0.730595 4.87511C0.730595 4.59465 0.821922 4.42638 1.00457 4.37029L3.65297 3.61306L4.56621 3.36065C4.56621 3.24846 4.53577 3.19237 4.47489 3.19237H4.38356L2.83105 3.61306C2.58752 3.66915 2.40488 3.61306 2.28311 3.44478C2.28311 3.16433 2.46576 2.96801 2.83105 2.85583L4.10959 2.26687L5.93607 1.67791L6.75799 0.920683C6.63623 1.14504 6.5449 1.34136 6.48402 1.50964L7.03197 1.25723L8.40183 0.752407ZM9.40639 57.0399H9.49772C9.98478 56.7594 10.4718 56.479 10.9589 56.1985C11.446 55.862 11.9026 55.5815 12.3288 55.3571C13.3638 54.7401 14.3988 54.1231 15.4338 53.5061C16.4688 52.833 17.4734 52.16 18.4475 51.4869C20.0913 49.9724 21.9178 48.6543 23.9269 47.5324C25.9361 46.3545 27.7626 44.9803 29.4064 43.4097H29.4977C31.0198 42.1196 32.6636 41.0259 34.4292 40.1284C36.1948 39.2309 37.8387 38.1933 39.3607 37.0153H39.4521C40.1218 36.5666 40.8219 36.1459 41.5525 35.7533C42.2831 35.3606 43.0137 34.968 43.7443 34.5754C44.2314 34.2949 44.7793 34.0425 45.3881 33.8181C46.0578 33.5377 46.5753 33.2011 46.9406 32.8085C47.2451 32.3598 47.4277 31.883 47.4886 31.3782C47.6104 30.8173 47.6712 30.2564 47.6712 29.6954V28.9382C47.6712 28.826 47.6712 28.7419 47.6712 28.6858C47.7321 28.6297 47.7626 28.5736 47.7626 28.5175C47.7626 28.4053 47.7626 28.2932 47.7626 28.181C47.8234 28.0688 47.8234 27.9566 47.7626 27.8444C47.7017 27.564 47.6408 27.2555 47.5799 26.9189C47.5799 26.5824 47.4581 26.3019 47.2146 26.0776C47.032 25.7971 46.7884 25.5727 46.484 25.4045C46.1796 25.1801 45.8752 24.9838 45.5708 24.8155C44.7184 24.1424 43.8052 23.5254 42.8311 22.9645C41.9178 22.4036 41.0046 21.8427 40.0913 21.2818C40.0304 21.2818 40 21.2818 40 21.2818C40 21.2257 40 21.1976 40 21.1976C38.4779 19.9075 36.8341 18.7577 35.0685 17.748C33.3029 16.7384 31.6286 15.6446 30.0457 14.4667V14.3826C28.828 13.2607 27.3668 12.3913 25.6621 11.7743C24.0183 11.1573 22.344 10.5403 20.6393 9.92331C18.9954 9.25022 17.5342 8.3808 16.2557 7.31507C15.4642 6.86634 14.6728 6.41761 13.8813 5.96889C13.0898 5.46407 12.2679 4.98729 11.4155 4.53856C10.9893 4.25811 10.5632 3.97765 10.137 3.69719C9.77169 3.36065 9.34551 3.08019 8.85845 2.85583C9.34551 2.51928 9.37595 1.95837 8.94978 1.17309C8.94978 1.34136 8.82801 1.45355 8.58448 1.50964C8.82801 1.67791 8.76712 1.93032 8.40183 2.26687C8.28006 2.37905 8.15829 2.46319 8.03653 2.51928C7.85388 2.51928 7.70168 2.49124 7.57991 2.43514C7.33638 2.32296 7.21461 2.21078 7.21461 2.0986L6.57535 2.43514C6.57535 2.43514 6.57535 2.46319 6.57535 2.51928C6.57535 2.51928 6.60579 2.51928 6.66667 2.51928C6.84932 2.51928 6.94064 2.60342 6.94064 2.77169C7.00152 2.77169 7.03197 2.82778 7.03197 2.93996C7.09285 2.99605 7.15373 3.0241 7.21461 3.0241C7.2755 3.0241 7.33638 3.05214 7.39726 3.10824C7.03197 3.44478 6.78843 3.69719 6.66667 3.86547V4.03374C6.84932 4.03374 6.97108 4.11788 7.03197 4.28615C7.03197 4.5666 6.94064 4.73488 6.75799 4.79097V5.12752C6.81887 5.2397 6.84932 5.37993 6.84932 5.5482C6.97108 5.66038 7.03197 5.74452 7.03197 5.80061C7.03197 6.02498 6.97108 6.1652 6.84932 6.22129V7.1468L7.03197 7.31507C7.03197 7.48335 7.00152 7.62357 6.94064 7.73576C6.94064 7.90403 6.94064 8.10035 6.94064 8.32472C6.94064 8.49299 6.97108 8.66126 7.03197 8.82953V9.08195C7.09285 10.0916 7.18417 11.1293 7.30594 12.195C7.4277 13.2046 7.57991 14.2143 7.76256 15.2239C7.82344 15.7848 7.88432 16.3738 7.94521 16.9908C8.06697 17.5517 8.34095 18.0565 8.76712 18.5053C9.19331 18.954 9.74125 19.3466 10.411 19.6832C11.1416 20.0197 11.7808 20.3282 12.3288 20.6087C13.3638 21.1135 14.3683 21.6464 15.3425 22.2073C16.3166 22.7121 17.2907 23.245 18.2648 23.8059C19.4216 24.4229 20.5784 25.0399 21.7352 25.6569C22.8919 26.2178 24.0487 26.8067 25.2055 27.4238C25.5708 27.6481 25.9665 27.7883 26.3927 27.8444C26.8189 27.9005 27.032 28.209 27.032 28.7699C27.0928 29.1626 27.0015 29.443 26.758 29.6113C26.5753 29.7235 26.3318 29.8357 26.0274 29.9479C25.8448 30.0039 25.6317 30.0881 25.3881 30.2003C25.1446 30.3685 24.9011 30.5368 24.6575 30.7051C24.414 30.8173 24.1705 30.9575 23.9269 31.1258C22.6484 31.855 21.3394 32.5561 20 33.2292C18.6606 33.9023 17.3212 34.6034 15.9817 35.3326C15.9209 35.3326 15.86 35.3606 15.7991 35.4167C15.7991 35.4167 15.7686 35.4167 15.7078 35.4167C15.7078 35.4728 15.6469 35.557 15.5251 35.6692L14.4292 36.0898C14.4292 36.1459 14.3988 36.174 14.3379 36.174C14.2161 36.3422 14.1248 36.4544 14.0639 36.5105L12.8767 37.0153C12.8767 37.1275 12.7854 37.2397 12.6027 37.3519L11.9635 37.6043C11.9026 37.6604 11.8113 37.7165 11.6895 37.7726C11.6286 37.8287 11.5373 37.8848 11.4155 37.9408C11.2938 38.053 11.0807 38.1933 10.7763 38.3615C10.6545 38.4176 10.5023 38.5018 10.3196 38.6139C10.137 38.7261 9.98478 38.8383 9.86301 38.9505C9.5586 39.1748 9.22375 39.3992 8.85845 39.6236C8.49315 39.7919 8.18874 40.0162 7.94521 40.2967C7.57991 40.8015 7.36682 41.3063 7.30594 41.8111C7.24506 42.2599 7.21461 42.7647 7.21461 43.3256V43.6621C7.21461 44.2231 7.21461 44.812 7.21461 45.429C7.2755 46.046 7.30594 46.663 7.30594 47.28C7.36682 48.1775 7.39726 49.103 7.39726 50.0565C7.45815 50.954 7.48859 51.8795 7.48859 52.833V54.4316C7.48859 54.4877 7.45815 54.5438 7.39726 54.5999C7.39726 54.656 7.39726 54.7401 7.39726 54.8523C7.2755 55.245 7.2755 55.5254 7.39726 55.6937C7.6408 56.1985 8.3105 56.6472 9.40639 57.0399ZM8.85845 2.85583C8.55404 3.13628 8.06697 3.22042 7.39726 3.10824C7.6408 2.93996 7.85388 2.74365 8.03653 2.51928C8.15829 2.57537 8.24962 2.60342 8.3105 2.60342C8.37139 2.60342 8.43227 2.63146 8.49315 2.68755C8.49315 2.68755 8.61492 2.74364 8.85845 2.85583Z" fill="#0F0F0F"/>
<path d="M8.40183 0.752407C8.58448 0.752407 8.70624 0.780452 8.76712 0.836543C8.76712 0.836543 8.61492 0.724362 8.3105 0.5C8.49315 0.55609 8.6758 0.612181 8.85845 0.668271C9.10198 0.724362 9.31507 0.808499 9.49772 0.920683C10.0457 1.14504 10.5632 1.45355 11.0502 1.84619C11.5982 2.18273 12.1461 2.51928 12.6941 2.85583C13.4855 3.30455 14.277 3.75328 15.0685 4.20201C15.86 4.65074 16.6514 5.09947 17.4429 5.5482C17.4429 5.5482 17.4429 5.57625 17.4429 5.63234C17.5038 5.63234 17.5647 5.63234 17.6256 5.63234C17.6256 5.68843 17.6256 5.71648 17.6256 5.71648C17.6865 5.71648 17.7169 5.74452 17.7169 5.80061C18.9954 6.86634 20.4566 7.73576 22.1005 8.40885C23.7443 9.02585 25.4186 9.64286 27.1233 10.2599C28.828 10.8769 30.2892 11.7743 31.5069 12.9522C33.0898 14.1301 34.7641 15.2239 36.5297 16.2336C38.2953 17.2432 39.9391 18.3931 41.4612 19.6832C42.3135 20.2441 43.2268 20.833 44.2009 21.45C45.175 22.011 46.0883 22.5999 46.9406 23.2169C47.3059 23.4413 47.7017 23.6937 48.1279 23.9741C48.554 24.1985 48.8889 24.5351 49.1324 24.9838C49.4368 25.3764 49.6195 25.7971 49.6804 26.2458C49.8021 26.6946 49.8935 27.1433 49.9543 27.592C50.0152 27.7603 50.0152 27.9286 49.9543 28.0968C49.9543 28.2651 49.9543 28.4334 49.9543 28.6017C49.9543 28.6578 49.9239 28.7138 49.863 28.7699C49.863 28.826 49.863 28.9102 49.863 29.0223C49.8021 29.9198 49.7413 30.7892 49.6804 31.6306C49.6195 32.472 49.2846 33.2572 48.6758 33.9864C48.2496 34.5473 47.6712 35.0241 46.9406 35.4167C46.21 35.7533 45.5099 36.0618 44.8402 36.3422C44.1096 36.7349 43.4094 37.1275 42.7397 37.5202C42.07 37.8567 41.4003 38.2493 40.7306 38.6981C39.2085 39.8199 37.5647 40.8295 35.7991 41.727C34.0335 42.6245 32.4201 43.6902 30.9589 44.9242C29.3151 46.4387 27.4581 47.7848 25.3881 48.9628C23.379 50.0846 21.5525 51.4027 19.9087 52.9172C19.9087 52.9172 19.9087 52.9452 19.9087 53.0013C19.9087 53.0013 19.8782 53.0013 19.8174 53.0013L19.726 53.0855C18.7519 53.7585 17.7169 54.4316 16.621 55.1047C15.586 55.7778 14.551 56.4229 13.516 57.0399C12.7854 57.4886 12.0244 57.9373 11.2329 58.3861C10.5023 58.8348 9.71081 59.1994 8.85845 59.4798C8.37139 59.7042 7.88433 59.592 7.39726 59.1433C7.33638 59.0311 7.2755 58.947 7.21461 58.8909C7.21461 58.8348 7.18417 58.7787 7.12329 58.7226L5.84475 59.3116L4.56621 59.8164L3.19635 60.4053C3.0137 60.5736 2.83105 60.5175 2.6484 60.2371C2.52663 60.1249 2.55708 59.9847 2.73973 59.8164H2.55708C2.31355 59.8725 2.1309 59.7883 2.00914 59.564C2.00914 59.3396 2.10046 59.1994 2.28311 59.1433L3.92694 58.7226L5.47945 58.3019L6.66667 57.9654C6.17961 57.6288 5.78387 57.2362 5.47945 56.7875L3.83562 57.3764L1.09589 58.3861C0.913246 58.5543 0.730595 58.4982 0.547947 58.2178C0.426178 57.9934 0.487064 57.8252 0.730595 57.713L2.10046 57.124L3.56165 56.7033L5.20548 56.1144C5.1446 55.8339 5.1446 55.5815 5.20548 55.3571L3.74429 55.9461L2.28311 56.3668L0.913242 56.7033C0.669712 56.7594 0.487064 56.6753 0.365299 56.4509C0.365299 56.2266 0.456627 56.0863 0.639275 56.0302L2.10046 55.6096L3.47032 55.273L5.29681 54.5158V53.8427L3.83562 54.4316L2.28311 54.8523L1.00457 55.273C0.76104 55.3291 0.578388 55.273 0.456623 55.1047C0.334858 54.8804 0.426182 54.7121 0.730595 54.5999L2.00914 54.0951H2.10046L3.56165 53.7585L5.29681 53.0013V52.833C5.29681 52.5526 5.26637 52.3282 5.20548 52.16L2.28311 53.5061H2.19178L0.821918 53.8427C0.578388 53.8988 0.395741 53.8146 0.273975 53.5903C0.273975 53.3659 0.365295 53.2257 0.547947 53.1696L1.91781 52.7489L3.379 52.16L4.84018 51.4869C4.84018 51.4869 4.87063 51.4869 4.93151 51.4869C4.99239 51.4869 5.11416 51.4588 5.29681 51.4027V50.7296L4.10959 51.2344L2.46576 51.6551L0.913242 52.16C0.669712 52.216 0.487064 52.16 0.365299 51.9917C0.243534 51.7673 0.334858 51.599 0.639275 51.4869L2.19178 50.8979H2.28311L3.83562 50.5614L5.11416 49.9724H5.20548V49.3834L3.65297 49.8041L2.19178 50.3931L0.730595 50.8138C0.487064 50.8699 0.304417 50.8138 0.182652 50.6455C0.0608864 50.4211 0.152206 50.2529 0.456623 50.1407L1.82648 49.6358L3.379 49.131L5.20548 48.5421V47.9531L3.83562 48.4579L2.37443 49.131L0.730595 49.6358C0.487064 49.6919 0.304417 49.6358 0.182652 49.4676C0.0608864 49.2432 0.152206 49.0749 0.456623 48.9628L3.56165 47.7848L5.11416 47.1117V46.1021L3.74429 46.4387L2.37443 47.0276H2.28311L0.730595 47.3642C0.487064 47.4202 0.304417 47.3361 0.182652 47.1117C0.182652 46.8874 0.273975 46.7472 0.456623 46.6911L2.10046 46.2704L3.47032 45.7656L5.11416 45.2607V44.8401L3.92694 45.3449L2.37443 45.7656L1.09589 46.1021C0.852364 46.1582 0.669712 46.1021 0.547947 45.9338C0.547947 45.6534 0.639271 45.4851 0.821918 45.429L2.19178 45.0083L3.65297 44.6718L5.02283 44.0828V43.3256L3.83562 43.8304L2.37443 44.5035L0.730595 45.0083C0.487064 45.0644 0.304417 45.0083 0.182652 44.8401C0.0608864 44.6157 0.152206 44.4474 0.456623 44.3352L2.00914 43.7463L3.47032 43.1573L4.93151 42.4842H5.02283C5.02283 42.2599 5.02283 42.0635 5.02283 41.8953C5.08372 41.6709 5.1446 41.4465 5.20548 41.2222L4.65754 41.4746H4.56621L3.10503 41.8111L1.73516 42.2318C1.67428 42.2879 1.58296 42.2879 1.46119 42.2318C1.33942 42.1196 1.27854 42.0355 1.27854 41.9794C1.15677 41.755 1.2481 41.5868 1.55251 41.4746L2.83105 41.138L3.83562 40.8856L3.56165 40.6332C3.43988 40.4089 3.5312 40.2406 3.83562 40.1284L5.11416 39.6236L6.0274 39.3712C6.0274 39.259 6.05784 39.2029 6.11872 39.2029C6.11872 39.1468 6.11872 39.1188 6.11872 39.1188C6.1796 39.0627 6.21005 39.0346 6.21005 39.0346C6.51446 38.642 6.87976 38.3335 7.30594 38.1091C7.73212 37.8287 8.12786 37.5762 8.49315 37.3519C9.22375 36.8471 9.95434 36.3703 10.6849 35.9216C11.4155 35.4728 12.1766 35.0241 12.968 34.5754C12.968 34.4632 13.1202 34.3791 13.4247 34.323C13.6682 34.2108 13.8813 34.0986 14.0639 33.9864C14.3075 33.8742 14.5205 33.7621 14.7032 33.6499C14.7641 33.4816 15.0076 33.3694 15.4338 33.3133C16.6515 32.6963 17.8691 32.0793 19.0868 31.4623C20.3653 30.8453 21.583 30.1722 22.7397 29.443C22.8006 29.3869 22.8311 29.3589 22.8311 29.3589L21.2785 29.8637L19.9087 30.5368L18.2648 31.1258C18.0822 31.294 17.8995 31.2379 17.7169 30.9575C17.5951 30.7331 17.6865 30.5649 17.9909 30.4527L19.5434 29.8637L20.9132 29.1906H21.0046L22.4658 28.6017H22.5571L22.8311 28.5175L22.2831 28.2651L21.2785 28.6017L19.9087 29.1065L18.3562 29.6954H18.2648L16.8037 30.1161C16.5601 30.1161 16.3775 30.032 16.2557 29.8637C16.2557 29.5833 16.3775 29.415 16.621 29.3589L18.0822 28.9382L19.6347 28.4334L20.9132 27.8444C20.9741 27.8444 21.1263 27.8164 21.3699 27.7603C21.309 27.7042 21.2177 27.6481 21.0959 27.592C20.9741 27.5359 20.8524 27.4798 20.7306 27.4238L19.8174 27.7603L16.895 28.6017L15.3425 29.0223C15.0381 29.1345 14.8858 29.0504 14.8858 28.7699C14.825 28.4895 14.9163 28.3212 15.1598 28.2651L16.621 27.8444L18.0822 27.5079L19.8174 26.9189C19.7565 26.8628 19.6651 26.8067 19.5434 26.7507C19.4216 26.6946 19.2999 26.6385 19.1781 26.5824L18.4475 26.8348L17.169 27.2555L15.6164 27.9286L14.0639 28.3493C13.7595 28.4614 13.6073 28.3773 13.6073 28.0968C13.4855 27.8725 13.5769 27.7042 13.8813 27.592L15.3425 27.2555L16.8037 26.5824L18.1735 26.0776C18.1126 26.0215 17.9604 25.9373 17.7169 25.8252L16.895 26.0776L15.2511 26.4982L13.8813 27.0031L12.3288 27.5079C12.2679 27.564 12.1766 27.564 12.0548 27.5079C11.933 27.3957 11.8722 27.3116 11.8722 27.2555C11.7504 27.0311 11.8113 26.8628 12.0548 26.7507L13.6073 26.33L14.9772 25.741H15.0685L16.8037 25.3203C16.5601 25.2082 16.3775 25.096 16.2557 24.9838L15.4338 25.3203L14.1553 25.8252L12.6027 26.2458L11.0502 26.8348C10.8067 26.8909 10.6241 26.8067 10.5023 26.5824C10.3805 26.4141 10.4414 26.2739 10.6849 26.1617L12.3288 25.5727L13.79 25.0679L15.3425 24.5631C15.2816 24.4509 15.1598 24.3668 14.9772 24.3107C14.8554 24.2546 14.7336 24.1985 14.6119 24.1424L13.9726 24.3107L12.4201 24.8997L10.9589 25.4886L9.40639 25.9934C9.16286 26.0495 8.98021 25.9654 8.85845 25.741C8.73668 25.5167 8.82801 25.3484 9.13242 25.2362L10.6849 24.8155L12.0548 24.2266V24.1424L13.6986 23.6376C13.4551 23.5254 13.2725 23.4132 13.1507 23.3011L12.6027 23.4693L11.2329 23.9741H11.1416L9.58904 24.3948L8.21918 24.8997C7.97565 24.9557 7.793 24.8996 7.67123 24.7314C7.54947 24.507 7.61036 24.3387 7.85389 24.2266L9.31507 23.6376H9.40639L10.9589 23.2169L12.1461 22.7962L11.5982 22.5438L10.9589 22.628L9.68037 23.3011L8.40183 23.8059L8.3105 23.89L6.84932 24.2266C6.60579 24.2826 6.42314 24.1985 6.30137 23.9741C6.17961 23.6937 6.27093 23.5535 6.57535 23.5535L8.03653 23.1328L9.31507 22.628L10.5936 22.039C10.4718 21.9829 10.3501 21.8988 10.2283 21.7866L9.58904 22.039H9.49772L8.12786 22.4597L6.57535 22.9645L5.20548 23.4693C4.96195 23.5254 4.7793 23.4693 4.65754 23.3011C4.53577 23.0767 4.62709 22.9084 4.93151 22.7962L6.30137 22.2073L7.85389 21.7025L9.22375 21.3659C9.0411 21.1976 8.70624 21.0855 8.21918 21.0294L6.75799 21.6183L5.47945 22.2914H5.38813L3.83562 22.7121C3.59209 22.7682 3.40944 22.7121 3.28767 22.5438C3.28767 22.2634 3.379 22.0951 3.56165 22.039L5.11416 21.5342L6.3927 20.9452H6.48402L7.76256 20.4404L7.03197 19.7673C6.9102 19.6551 6.81887 19.5429 6.75799 19.4308L4.74886 20.3563C4.74886 20.3563 4.71842 20.3563 4.65754 20.3563C4.65754 20.3563 4.65754 20.3843 4.65754 20.4404L3.10503 20.777L1.64384 21.45C1.40031 21.5622 1.21766 21.5061 1.09589 21.2818C0.974129 21.0574 1.06545 20.8891 1.36986 20.777L2.73973 20.1039H2.83105L4.38356 19.6832L6.3927 18.7577C6.27093 18.4772 6.14917 18.2248 6.0274 18.0004C5.90564 17.7761 5.69254 17.5517 5.38813 17.3273L4.10959 17.6639L2.6484 18.2528H2.55708L1.18722 18.5894C0.943687 18.6455 0.76104 18.5613 0.639275 18.337C0.639275 18.1126 0.730595 17.9724 0.913242 17.9163L2.37443 17.4956L3.83562 16.9908L5.20548 16.5701L5.6621 16.4018C5.6621 16.1214 5.54034 15.9251 5.29681 15.8129L3.74429 16.4018L2.19178 16.8225L0.639275 17.3273C0.395741 17.3834 0.213089 17.3273 0.0913239 17.1591C-0.0304413 16.9347 0.0608864 16.7664 0.365299 16.6542L1.91781 16.0653H2.00914L3.47032 15.7287L5.02283 15.1398L5.47945 14.9715C5.47945 14.8032 5.38813 14.635 5.20548 14.4667C5.1446 14.4667 5.11416 14.4947 5.11416 14.5508L3.65297 14.8874L2.19178 15.5605L0.821918 16.1494C0.639271 16.3177 0.456623 16.2616 0.273975 15.9812C0.213093 15.8129 0.273975 15.6446 0.456623 15.4763L1.82648 14.8032L3.28767 14.2143H3.379L5.29681 13.6253C5.23592 13.5131 5.20548 13.3729 5.20548 13.2046C5.20548 13.0364 5.17504 12.8681 5.11416 12.6998L3.56165 13.3729L2.10046 13.8777L0.639275 14.2984C0.395741 14.3545 0.213089 14.2984 0.0913239 14.1301C0.0913239 13.8497 0.182652 13.6814 0.365299 13.6253L1.82648 13.1205L3.28767 12.6998L4.84018 12.0267H4.93151L5.11416 11.9426C5.05328 11.8304 5.02283 11.606 5.02283 11.2695L3.74429 11.6902L2.37443 12.3633L0.913242 12.8681C0.669712 12.9803 0.487064 12.9242 0.365299 12.6998C0.243534 12.4755 0.334858 12.3072 0.639275 12.195L3.379 11.0171H3.47032L4.84018 10.5123H4.93151V10.0916L4.01827 10.4281L2.46576 10.8488L1.09589 11.2695C0.852364 11.3256 0.669712 11.2695 0.547947 11.1012C0.426178 10.8769 0.517506 10.7086 0.821918 10.5964L2.19178 10.0916H2.28311L3.74429 9.75504L4.84018 9.33435C4.84018 9.16608 4.80974 9.02585 4.74886 8.91367C4.74886 8.7454 4.74886 8.60517 4.74886 8.49299L3.56165 8.99781L2.19178 9.6709H2.10046L0.547947 10.0916C0.304413 10.1477 0.121769 10.0916 0 9.92331C0 9.64286 0.0913277 9.47458 0.273975 9.41849L1.82648 8.91367L4.74886 7.73576C4.74886 7.62357 4.71842 7.51139 4.65754 7.39921C4.65754 7.23094 4.65754 7.06266 4.65754 6.89439L3.83562 7.23094L2.28311 7.81989L0.913242 8.40885C0.730595 8.57713 0.547947 8.52103 0.365299 8.24057C0.304417 8.0723 0.365295 7.90403 0.547947 7.73576L1.91781 7.1468V7.06266L3.56165 6.55784L4.65754 6.13716V5.46406L3.74429 5.71648L2.46576 6.22129L0.913242 6.72612C0.669712 6.78221 0.487064 6.72612 0.365299 6.55784C0.243534 6.33348 0.334858 6.1652 0.639275 6.05302L2.10046 5.46406L4.56621 4.70683V4.53856C4.50533 4.42638 4.47489 4.28615 4.47489 4.11788L2.55708 4.70683L1.27854 5.04338C1.03501 5.09947 0.852364 5.04338 0.730595 4.87511C0.730595 4.59465 0.821922 4.42638 1.00457 4.37029L3.65297 3.61306L4.56621 3.36065C4.56621 3.24846 4.53577 3.19237 4.47489 3.19237H4.38356L2.83105 3.61306C2.58752 3.66915 2.40488 3.61306 2.28311 3.44478C2.28311 3.16433 2.46576 2.96801 2.83105 2.85583L4.10959 2.26687L5.93607 1.67791L6.75799 0.920683C6.63623 1.14504 6.5449 1.34136 6.48402 1.50964L7.03197 1.25723L8.40183 0.752407ZM9.40639 57.0399H9.49772C9.98478 56.7594 10.4718 56.479 10.9589 56.1985C11.446 55.862 11.9026 55.5815 12.3288 55.3571C13.3638 54.7401 14.3988 54.1231 15.4338 53.5061C16.4688 52.833 17.4734 52.16 18.4475 51.4869C20.0913 49.9724 21.9178 48.6543 23.9269 47.5324C25.9361 46.3545 27.7626 44.9803 29.4064 43.4097H29.4977C31.0198 42.1196 32.6636 41.0259 34.4292 40.1284C36.1948 39.2309 37.8387 38.1933 39.3607 37.0153H39.4521C40.1218 36.5666 40.8219 36.1459 41.5525 35.7533C42.2831 35.3606 43.0137 34.968 43.7443 34.5754C44.2314 34.2949 44.7793 34.0425 45.3881 33.8181C46.0578 33.5377 46.5753 33.2011 46.9406 32.8085C47.2451 32.3598 47.4277 31.883 47.4886 31.3782C47.6104 30.8173 47.6712 30.2564 47.6712 29.6954V28.9382C47.6712 28.826 47.6712 28.7419 47.6712 28.6858C47.7321 28.6297 47.7626 28.5736 47.7626 28.5175C47.7626 28.4053 47.7626 28.2932 47.7626 28.181C47.8234 28.0688 47.8234 27.9566 47.7626 27.8444C47.7017 27.564 47.6408 27.2555 47.5799 26.9189C47.5799 26.5824 47.4581 26.3019 47.2146 26.0776C47.032 25.7971 46.7884 25.5727 46.484 25.4045C46.1796 25.1801 45.8752 24.9838 45.5708 24.8155C44.7184 24.1424 43.8052 23.5254 42.8311 22.9645C41.9178 22.4036 41.0046 21.8427 40.0913 21.2818C40.0304 21.2818 40 21.2818 40 21.2818C40 21.2257 40 21.1976 40 21.1976C38.4779 19.9075 36.8341 18.7577 35.0685 17.748C33.3029 16.7384 31.6286 15.6446 30.0457 14.4667V14.3826C28.828 13.2607 27.3668 12.3913 25.6621 11.7743C24.0183 11.1573 22.344 10.5403 20.6393 9.92331C18.9954 9.25022 17.5342 8.3808 16.2557 7.31507C15.4642 6.86634 14.6728 6.41761 13.8813 5.96889C13.0898 5.46407 12.2679 4.98729 11.4155 4.53856C10.9893 4.25811 10.5632 3.97765 10.137 3.69719C9.77169 3.36065 9.34551 3.08019 8.85845 2.85583C9.34551 2.51928 9.37595 1.95837 8.94978 1.17309C8.94978 1.34136 8.82801 1.45355 8.58448 1.50964C8.82801 1.67791 8.76712 1.93032 8.40183 2.26687C8.28006 2.37905 8.15829 2.46319 8.03653 2.51928C7.85388 2.51928 7.70168 2.49124 7.57991 2.43514C7.33638 2.32296 7.21461 2.21078 7.21461 2.0986L6.57535 2.43514C6.57535 2.43514 6.57535 2.46319 6.57535 2.51928C6.57535 2.51928 6.60579 2.51928 6.66667 2.51928C6.84932 2.51928 6.94064 2.60342 6.94064 2.77169C7.00152 2.77169 7.03197 2.82778 7.03197 2.93996C7.09285 2.99605 7.15373 3.0241 7.21461 3.0241C7.2755 3.0241 7.33638 3.05214 7.39726 3.10824C7.03197 3.44478 6.78843 3.69719 6.66667 3.86547V4.03374C6.84932 4.03374 6.97108 4.11788 7.03197 4.28615C7.03197 4.5666 6.94064 4.73488 6.75799 4.79097V5.12752C6.81887 5.2397 6.84932 5.37993 6.84932 5.5482C6.97108 5.66038 7.03197 5.74452 7.03197 5.80061C7.03197 6.02498 6.97108 6.1652 6.84932 6.22129V7.1468L7.03197 7.31507C7.03197 7.48335 7.00152 7.62357 6.94064 7.73576C6.94064 7.90403 6.94064 8.10035 6.94064 8.32472C6.94064 8.49299 6.97108 8.66126 7.03197 8.82953V9.08195C7.09285 10.0916 7.18417 11.1293 7.30594 12.195C7.4277 13.2046 7.57991 14.2143 7.76256 15.2239C7.82344 15.7848 7.88432 16.3738 7.94521 16.9908C8.06697 17.5517 8.34095 18.0565 8.76712 18.5053C9.19331 18.954 9.74125 19.3466 10.411 19.6832C11.1416 20.0197 11.7808 20.3282 12.3288 20.6087C13.3638 21.1135 14.3683 21.6464 15.3425 22.2073C16.3166 22.7121 17.2907 23.245 18.2648 23.8059C19.4216 24.4229 20.5784 25.0399 21.7352 25.6569C22.8919 26.2178 24.0487 26.8067 25.2055 27.4238C25.5708 27.6481 25.9665 27.7883 26.3927 27.8444C26.8189 27.9005 27.032 28.209 27.032 28.7699C27.0928 29.1626 27.0015 29.443 26.758 29.6113C26.5753 29.7235 26.3318 29.8357 26.0274 29.9479C25.8448 30.0039 25.6317 30.0881 25.3881 30.2003C25.1446 30.3685 24.9011 30.5368 24.6575 30.7051C24.414 30.8173 24.1705 30.9575 23.9269 31.1258C22.6484 31.855 21.3394 32.5561 20 33.2292C18.6606 33.9023 17.3212 34.6034 15.9817 35.3326C15.9209 35.3326 15.86 35.3606 15.7991 35.4167C15.7991 35.4167 15.7686 35.4167 15.7078 35.4167C15.7078 35.4728 15.6469 35.557 15.5251 35.6692L14.4292 36.0898C14.4292 36.1459 14.3988 36.174 14.3379 36.174C14.2161 36.3422 14.1248 36.4544 14.0639 36.5105L12.8767 37.0153C12.8767 37.1275 12.7854 37.2397 12.6027 37.3519L11.9635 37.6043C11.9026 37.6604 11.8113 37.7165 11.6895 37.7726C11.6286 37.8287 11.5373 37.8848 11.4155 37.9408C11.2938 38.053 11.0807 38.1933 10.7763 38.3615C10.6545 38.4176 10.5023 38.5018 10.3196 38.6139C10.137 38.7261 9.98478 38.8383 9.86301 38.9505C9.5586 39.1748 9.22375 39.3992 8.85845 39.6236C8.49315 39.7919 8.18874 40.0162 7.94521 40.2967C7.57991 40.8015 7.36682 41.3063 7.30594 41.8111C7.24506 42.2599 7.21461 42.7647 7.21461 43.3256V43.6621C7.21461 44.2231 7.21461 44.812 7.21461 45.429C7.2755 46.046 7.30594 46.663 7.30594 47.28C7.36682 48.1775 7.39726 49.103 7.39726 50.0565C7.45815 50.954 7.48859 51.8795 7.48859 52.833V54.4316C7.48859 54.4877 7.45815 54.5438 7.39726 54.5999C7.39726 54.656 7.39726 54.7401 7.39726 54.8523C7.2755 55.245 7.2755 55.5254 7.39726 55.6937C7.6408 56.1985 8.3105 56.6472 9.40639 57.0399ZM8.85845 2.85583C8.55404 3.13628 8.06697 3.22042 7.39726 3.10824C7.6408 2.93996 7.85388 2.74365 8.03653 2.51928C8.15829 2.57537 8.24962 2.60342 8.3105 2.60342C8.37139 2.60342 8.43227 2.63146 8.49315 2.68755C8.49315 2.68755 8.61492 2.74364 8.85845 2.85583Z" fill="black" fill-opacity="0.2"/>
</svg>
