<svg width="50" height="61" viewBox="0 0 50 61" fill="none" xmlns="http://www.w3.org/2000/svg">
<path d="M41.5982 0.752407C41.4155 0.752407 41.2938 0.780452 41.2329 0.836543C41.2329 0.836543 41.3851 0.724362 41.6895 0.5C41.5068 0.55609 41.3242 0.612181 41.1416 0.668271C40.898 0.724362 40.6849 0.808499 40.5023 0.920683C39.9543 1.14504 39.4368 1.45355 38.9498 1.84619C38.4018 2.18273 37.8539 2.51928 37.3059 2.85583C36.5145 3.30455 35.723 3.75328 34.9315 4.20201C34.14 4.65074 33.3486 5.09947 32.5571 5.5482C32.5571 5.5482 32.5571 5.57625 32.5571 5.63234C32.4962 5.63234 32.4353 5.63234 32.3744 5.63234C32.3744 5.68843 32.3744 5.71648 32.3744 5.71648C32.3135 5.71648 32.2831 5.74452 32.2831 5.80061C31.0046 6.86634 29.5434 7.73576 27.8995 8.40885C26.2557 9.02585 24.5814 9.64286 22.8767 10.2599C21.172 10.8769 19.7108 11.7743 18.4931 12.9522C16.9102 14.1301 15.2359 15.2239 13.4703 16.2336C11.7047 17.2432 10.0609 18.3931 8.53881 19.6832C7.68645 20.2441 6.77321 20.833 5.79909 21.45C4.82496 22.011 3.91172 22.5999 3.05936 23.2169C2.69406 23.4413 2.29833 23.6937 1.87214 23.9741C1.44597 24.1985 1.11111 24.5351 0.86758 24.9838C0.563166 25.3764 0.380516 25.7971 0.319631 26.2458C0.197867 26.6946 0.106544 27.1433 0.0456615 27.592C-0.0152205 27.7603 -0.0152205 27.9286 0.0456615 28.0968C0.0456615 28.2651 0.0456615 28.4334 0.0456615 28.6017C0.0456615 28.6578 0.0761025 28.7138 0.136985 28.7699C0.136985 28.826 0.136985 28.9102 0.136985 29.0223C0.197867 29.9198 0.258749 30.7892 0.319631 31.6306C0.380516 32.472 0.715373 33.2572 1.3242 33.9864C1.75038 34.5473 2.32876 35.0241 3.05936 35.4167C3.78995 35.7533 4.4901 36.0618 5.15982 36.3422C5.89041 36.7349 6.59056 37.1275 7.26027 37.5202C7.92998 37.8567 8.59969 38.2493 9.2694 38.6981C10.7915 39.8199 12.4353 40.8295 14.2009 41.727C15.9665 42.6245 17.5799 43.6902 19.0411 44.9242C20.6849 46.4387 22.5419 47.7848 24.6119 48.9628C26.621 50.0846 28.4475 51.4027 30.0913 52.9172C30.0913 52.9172 30.0913 52.9452 30.0913 53.0013C30.0913 53.0013 30.1218 53.0013 30.1826 53.0013L30.274 53.0855C31.2481 53.7585 32.2831 54.4316 33.379 55.1047C34.414 55.7778 35.449 56.4229 36.484 57.0399C37.2146 57.4886 37.9756 57.9373 38.7671 58.3861C39.4977 58.8348 40.2892 59.1994 41.1416 59.4798C41.6286 59.7042 42.1157 59.592 42.6027 59.1433C42.6636 59.0311 42.7245 58.947 42.7854 58.8909C42.7854 58.8348 42.8158 58.7787 42.8767 58.7226L44.1553 59.3116L45.4338 59.8164L46.8036 60.4053C46.9863 60.5736 47.1689 60.5175 47.3516 60.2371C47.4734 60.1249 47.4429 59.9847 47.2603 59.8164H47.4429C47.6865 59.8725 47.8691 59.7883 47.9909 59.564C47.9909 59.3396 47.8995 59.1994 47.7169 59.1433L46.0731 58.7226L44.5205 58.3019L43.3333 57.9654C43.8204 57.6288 44.2161 57.2362 44.5205 56.7875L46.1644 57.3764L48.9041 58.3861C49.0868 58.5543 49.2694 58.4982 49.4521 58.2178C49.5738 57.9934 49.5129 57.8252 49.2694 57.713L47.8995 57.124L46.4384 56.7033L44.7945 56.1144C44.8554 55.8339 44.8554 55.5815 44.7945 55.3571L46.2557 55.9461L47.7169 56.3668L49.0868 56.7033C49.3303 56.7594 49.5129 56.6753 49.6347 56.4509C49.6347 56.2266 49.5434 56.0863 49.3607 56.0302L47.8995 55.6096L46.5297 55.273L44.7032 54.5158V53.8427L46.1644 54.4316L47.7169 54.8523L48.9954 55.273C49.239 55.3291 49.4216 55.273 49.5434 55.1047C49.6651 54.8804 49.5738 54.7121 49.2694 54.5999L47.9909 54.0951H47.8995L46.4384 53.7585L44.7032 53.0013V52.833C44.7032 52.5526 44.7336 52.3282 44.7945 52.16L47.7169 53.5061H47.8082L49.1781 53.8427C49.4216 53.8988 49.6043 53.8146 49.726 53.5903C49.726 53.3659 49.6347 53.2257 49.4521 53.1696L48.0822 52.7489L46.621 52.16L45.1598 51.4869C45.1598 51.4869 45.1294 51.4869 45.0685 51.4869C45.0076 51.4869 44.8858 51.4588 44.7032 51.4027V50.7296L45.8904 51.2344L47.5342 51.6551L49.0868 52.16C49.3303 52.216 49.5129 52.16 49.6347 51.9917C49.7565 51.7673 49.6651 51.599 49.3607 51.4869L47.8082 50.8979H47.7169L46.1644 50.5614L44.8858 49.9724H44.7945V49.3834L46.347 49.8041L47.8082 50.3931L49.2694 50.8138C49.5129 50.8699 49.6956 50.8138 49.8173 50.6455C49.9391 50.4211 49.8478 50.2529 49.5434 50.1407L48.1735 49.6358L46.621 49.131L44.7945 48.5421V47.9531L46.1644 48.4579L47.6256 49.131L49.2694 49.6358C49.5129 49.6919 49.6956 49.6358 49.8173 49.4676C49.9391 49.2432 49.8478 49.0749 49.5434 48.9628L46.4384 47.7848L44.8858 47.1117V46.1021L46.2557 46.4387L47.6256 47.0276H47.7169L49.2694 47.3642C49.5129 47.4202 49.6956 47.3361 49.8173 47.1117C49.8173 46.8874 49.726 46.7472 49.5434 46.6911L47.8995 46.2704L46.5297 45.7656L44.8858 45.2607V44.8401L46.0731 45.3449L47.6256 45.7656L48.9041 46.1021C49.1476 46.1582 49.3303 46.1021 49.4521 45.9338C49.4521 45.6534 49.3607 45.4851 49.1781 45.429L47.8082 45.0083L46.347 44.6718L44.9772 44.0828V43.3256L46.1644 43.8304L47.6256 44.5035L49.2694 45.0083C49.5129 45.0644 49.6956 45.0083 49.8173 44.8401C49.9391 44.6157 49.8478 44.4474 49.5434 44.3352L47.9909 43.7463L46.5297 43.1573L45.0685 42.4842H44.9772C44.9772 42.2599 44.9772 42.0635 44.9772 41.8953C44.9163 41.6709 44.8554 41.4465 44.7945 41.2222L45.3425 41.4746H45.4338L46.895 41.8111L48.2648 42.2318C48.3257 42.2879 48.417 42.2879 48.5388 42.2318C48.6606 42.1196 48.7215 42.0355 48.7215 41.9794C48.8432 41.755 48.7519 41.5868 48.4475 41.4746L47.1689 41.138L46.1644 40.8856L46.4384 40.6332C46.5601 40.4089 46.4688 40.2406 46.1644 40.1284L44.8858 39.6236L43.9726 39.3712C43.9726 39.259 43.9422 39.2029 43.8813 39.2029C43.8813 39.1468 43.8813 39.1188 43.8813 39.1188C43.8204 39.0627 43.79 39.0346 43.79 39.0346C43.4855 38.642 43.1202 38.3335 42.6941 38.1091C42.2679 37.8287 41.8721 37.5762 41.5068 37.3519C40.7763 36.8471 40.0457 36.3703 39.3151 35.9216C38.5845 35.4728 37.8234 35.0241 37.032 34.5754C37.032 34.4632 36.8798 34.3791 36.5753 34.323C36.3318 34.2108 36.1187 34.0986 35.9361 33.9864C35.6925 33.8742 35.4795 33.7621 35.2968 33.6499C35.2359 33.4816 34.9924 33.3694 34.5662 33.3133C33.3485 32.6963 32.1309 32.0793 30.9132 31.4623C29.6347 30.8453 28.417 30.1722 27.2603 29.443C27.1994 29.3869 27.1689 29.3589 27.1689 29.3589L28.7215 29.8637L30.0913 30.5368L31.7352 31.1258C31.9178 31.294 32.1005 31.2379 32.2831 30.9575C32.4049 30.7331 32.3135 30.5649 32.0091 30.4527L30.4566 29.8637L29.0868 29.1906H28.9954L27.5342 28.6017H27.4429L27.1689 28.5175L27.7169 28.2651L28.7215 28.6017L30.0913 29.1065L31.6438 29.6954H31.7352L33.1963 30.1161C33.4399 30.1161 33.6225 30.032 33.7443 29.8637C33.7443 29.5833 33.6225 29.415 33.379 29.3589L31.9178 28.9382L30.3653 28.4334L29.0868 27.8444C29.0259 27.8444 28.8737 27.8164 28.6301 27.7603C28.691 27.7042 28.7823 27.6481 28.9041 27.592C29.0259 27.5359 29.1476 27.4798 29.2694 27.4238L30.1826 27.7603L33.105 28.6017L34.6575 29.0223C34.9619 29.1345 35.1142 29.0504 35.1142 28.7699C35.175 28.4895 35.0837 28.3212 34.8402 28.2651L33.379 27.8444L31.9178 27.5079L30.1826 26.9189C30.2435 26.8628 30.3349 26.8067 30.4566 26.7507C30.5784 26.6946 30.7001 26.6385 30.8219 26.5824L31.5525 26.8348L32.831 27.2555L34.3836 27.9286L35.9361 28.3493C36.2405 28.4614 36.3927 28.3773 36.3927 28.0968C36.5145 27.8725 36.4231 27.7042 36.1187 27.592L34.6575 27.2555L33.1963 26.5824L31.8265 26.0776C31.8874 26.0215 32.0396 25.9373 32.2831 25.8252L33.105 26.0776L34.7489 26.4982L36.1187 27.0031L37.6712 27.5079C37.7321 27.564 37.8234 27.564 37.9452 27.5079C38.067 27.3957 38.1278 27.3116 38.1278 27.2555C38.2496 27.0311 38.1887 26.8628 37.9452 26.7507L36.3927 26.33L35.0228 25.741H34.9315L33.1963 25.3203C33.4399 25.2082 33.6225 25.096 33.7443 24.9838L34.5662 25.3203L35.8447 25.8252L37.3973 26.2458L38.9498 26.8348C39.1933 26.8909 39.3759 26.8067 39.4977 26.5824C39.6195 26.4141 39.5586 26.2739 39.3151 26.1617L37.6712 25.5727L36.21 25.0679L34.6575 24.5631C34.7184 24.4509 34.8402 24.3668 35.0228 24.3107C35.1446 24.2546 35.2664 24.1985 35.3881 24.1424L36.0274 24.3107L37.5799 24.8997L39.0411 25.4886L40.5936 25.9934C40.8371 26.0495 41.0198 25.9654 41.1416 25.741C41.2633 25.5167 41.172 25.3484 40.8676 25.2362L39.3151 24.8155L37.9452 24.2266V24.1424L36.3014 23.6376C36.5449 23.5254 36.7275 23.4132 36.8493 23.3011L37.3973 23.4693L38.7671 23.9741H38.8584L40.411 24.3948L41.7808 24.8997C42.0244 24.9557 42.207 24.8996 42.3288 24.7314C42.4505 24.507 42.3896 24.3387 42.1461 24.2266L40.6849 23.6376H40.5936L39.0411 23.2169L37.8539 22.7962L38.4018 22.5438L39.0411 22.628L40.3196 23.3011L41.5982 23.8059L41.6895 23.89L43.1507 24.2266C43.3942 24.2826 43.5769 24.1985 43.6986 23.9741C43.8204 23.6937 43.7291 23.5535 43.4247 23.5535L41.9635 23.1328L40.6849 22.628L39.4064 22.039C39.5282 21.9829 39.6499 21.8988 39.7717 21.7866L40.411 22.039H40.5023L41.8721 22.4597L43.4247 22.9645L44.7945 23.4693C45.038 23.5254 45.2207 23.4693 45.3425 23.3011C45.4642 23.0767 45.3729 22.9084 45.0685 22.7962L43.6986 22.2073L42.1461 21.7025L40.7763 21.3659C40.9589 21.1976 41.2938 21.0855 41.7808 21.0294L43.242 21.6183L44.5205 22.2914H44.6119L46.1644 22.7121C46.4079 22.7682 46.5906 22.7121 46.7123 22.5438C46.7123 22.2634 46.621 22.0951 46.4384 22.039L44.8858 21.5342L43.6073 20.9452H43.516L42.2374 20.4404L42.968 19.7673C43.0898 19.6551 43.1811 19.5429 43.242 19.4308L45.2511 20.3563C45.2511 20.3563 45.2816 20.3563 45.3425 20.3563C45.3425 20.3563 45.3425 20.3843 45.3425 20.4404L46.895 20.777L48.3562 21.45C48.5997 21.5622 48.7823 21.5061 48.9041 21.2818C49.0259 21.0574 48.9346 20.8891 48.6301 20.777L47.2603 20.1039H47.1689L45.6164 19.6832L43.6073 18.7577C43.7291 18.4772 43.8508 18.2248 43.9726 18.0004C44.0944 17.7761 44.3075 17.5517 44.6119 17.3273L45.8904 17.6639L47.3516 18.2528H47.4429L48.8128 18.5894C49.0563 18.6455 49.239 18.5613 49.3607 18.337C49.3607 18.1126 49.2694 17.9724 49.0868 17.9163L47.6256 17.4956L46.1644 16.9908L44.7945 16.5701L44.3379 16.4018C44.3379 16.1214 44.4597 15.9251 44.7032 15.8129L46.2557 16.4018L47.8082 16.8225L49.3607 17.3273C49.6043 17.3834 49.7869 17.3273 49.9087 17.1591C50.0304 16.9347 49.9391 16.7664 49.6347 16.6542L48.0822 16.0653H47.9909L46.5297 15.7287L44.9772 15.1398L44.5205 14.9715C44.5205 14.8032 44.6119 14.635 44.7945 14.4667C44.8554 14.4667 44.8858 14.4947 44.8858 14.5508L46.347 14.8874L47.8082 15.5605L49.1781 16.1494C49.3607 16.3177 49.5434 16.2616 49.726 15.9812C49.7869 15.8129 49.726 15.6446 49.5434 15.4763L48.1735 14.8032L46.7123 14.2143H46.621L44.7032 13.6253C44.7641 13.5131 44.7945 13.3729 44.7945 13.2046C44.7945 13.0364 44.825 12.8681 44.8858 12.6998L46.4384 13.3729L47.8995 13.8777L49.3607 14.2984C49.6043 14.3545 49.7869 14.2984 49.9087 14.1301C49.9087 13.8497 49.8173 13.6814 49.6347 13.6253L48.1735 13.1205L46.7123 12.6998L45.1598 12.0267H45.0685L44.8858 11.9426C44.9467 11.8304 44.9772 11.606 44.9772 11.2695L46.2557 11.6902L47.6256 12.3633L49.0868 12.8681C49.3303 12.9803 49.5129 12.9242 49.6347 12.6998C49.7565 12.4755 49.6651 12.3072 49.3607 12.195L46.621 11.0171H46.5297L45.1598 10.5123H45.0685V10.0916L45.9817 10.4281L47.5342 10.8488L48.9041 11.2695C49.1476 11.3256 49.3303 11.2695 49.4521 11.1012C49.5738 10.8769 49.4825 10.7086 49.1781 10.5964L47.8082 10.0916H47.7169L46.2557 9.75504L45.1598 9.33435C45.1598 9.16608 45.1903 9.02585 45.2511 8.91367C45.2511 8.7454 45.2511 8.60517 45.2511 8.49299L46.4384 8.99781L47.8082 9.6709H47.8995L49.4521 10.0916C49.6956 10.1477 49.8782 10.0916 50 9.92331C50 9.64286 49.9087 9.47458 49.726 9.41849L48.1735 8.91367L45.2511 7.73576C45.2511 7.62357 45.2816 7.51139 45.3425 7.39921C45.3425 7.23094 45.3425 7.06266 45.3425 6.89439L46.1644 7.23094L47.7169 7.81989L49.0868 8.40885C49.2694 8.57713 49.4521 8.52103 49.6347 8.24057C49.6956 8.0723 49.6347 7.90403 49.4521 7.73576L48.0822 7.1468V7.06266L46.4384 6.55784L45.3425 6.13716V5.46406L46.2557 5.71648L47.5342 6.22129L49.0868 6.72612C49.3303 6.78221 49.5129 6.72612 49.6347 6.55784C49.7565 6.33348 49.6651 6.1652 49.3607 6.05302L47.8995 5.46406L45.4338 4.70683V4.53856C45.4947 4.42638 45.5251 4.28615 45.5251 4.11788L47.4429 4.70683L48.7215 5.04338C48.965 5.09947 49.1476 5.04338 49.2694 4.87511C49.2694 4.59465 49.1781 4.42638 48.9954 4.37029L46.347 3.61306L45.4338 3.36065C45.4338 3.24846 45.4642 3.19237 45.5251 3.19237H45.6164L47.1689 3.61306C47.4125 3.66915 47.5951 3.61306 47.7169 3.44478C47.7169 3.16433 47.5342 2.96801 47.1689 2.85583L45.8904 2.26687L44.0639 1.67791L43.242 0.920683C43.3638 1.14504 43.4551 1.34136 43.516 1.50964L42.968 1.25723L41.5982 0.752407ZM40.5936 57.0399H40.5023C40.0152 56.7594 39.5282 56.479 39.0411 56.1985C38.554 55.862 38.0974 55.5815 37.6712 55.3571C36.6362 54.7401 35.6012 54.1231 34.5662 53.5061C33.5312 52.833 32.5266 52.16 31.5525 51.4869C29.9087 49.9724 28.0822 48.6543 26.0731 47.5324C24.0639 46.3545 22.2374 44.9803 20.5936 43.4097H20.5023C18.9802 42.1196 17.3364 41.0259 15.5708 40.1284C13.8052 39.2309 12.1613 38.1933 10.6393 37.0153H10.5479C9.87823 36.5666 9.17808 36.1459 8.44749 35.7533C7.71689 35.3606 6.9863 34.968 6.25571 34.5754C5.76864 34.2949 5.2207 34.0425 4.61187 33.8181C3.94216 33.5377 3.42465 33.2011 3.05936 32.8085C2.75495 32.3598 2.5723 31.883 2.51142 31.3782C2.38965 30.8173 2.32876 30.2564 2.32876 29.6954V28.9382C2.32876 28.826 2.32876 28.7419 2.32876 28.6858C2.26788 28.6297 2.23744 28.5736 2.23744 28.5175C2.23744 28.4053 2.23744 28.2932 2.23744 28.181C2.17656 28.0688 2.17656 27.9566 2.23744 27.8444C2.29832 27.564 2.35921 27.2555 2.42009 26.9189C2.42009 26.5824 2.54185 26.3019 2.78539 26.0776C2.96804 25.7971 3.21157 25.5727 3.51598 25.4045C3.82039 25.1801 4.12481 24.9838 4.42922 24.8155C5.28158 24.1424 6.19482 23.5254 7.16895 22.9645C8.08219 22.4036 8.99543 21.8427 9.90867 21.2818C9.96956 21.2818 10 21.2818 10 21.2818C10 21.2257 10 21.1976 10 21.1976C11.5221 19.9075 13.1659 18.7577 14.9315 17.748C16.6971 16.7384 18.3714 15.6446 19.9543 14.4667V14.3826C21.172 13.2607 22.6332 12.3913 24.3379 11.7743C25.9817 11.1573 27.656 10.5403 29.3607 9.92331C31.0046 9.25022 32.4658 8.3808 33.7443 7.31507C34.5358 6.86634 35.3272 6.41761 36.1187 5.96889C36.9102 5.46407 37.7321 4.98729 38.5845 4.53856C39.0107 4.25811 39.4368 3.97765 39.863 3.69719C40.2283 3.36065 40.6545 3.08019 41.1416 2.85583C40.6545 2.51928 40.624 1.95837 41.0502 1.17309C41.0502 1.34136 41.172 1.45355 41.4155 1.50964C41.172 1.67791 41.2329 1.93032 41.5982 2.26687C41.7199 2.37905 41.8417 2.46319 41.9635 2.51928C42.1461 2.51928 42.2983 2.49124 42.4201 2.43514C42.6636 2.32296 42.7854 2.21078 42.7854 2.0986L43.4247 2.43514C43.4247 2.43514 43.4247 2.46319 43.4247 2.51928C43.4247 2.51928 43.3942 2.51928 43.3333 2.51928C43.1507 2.51928 43.0594 2.60342 43.0594 2.77169C42.9985 2.77169 42.968 2.82778 42.968 2.93996C42.9072 2.99605 42.8463 3.0241 42.7854 3.0241C42.7245 3.0241 42.6636 3.05214 42.6027 3.10824C42.968 3.44478 43.2116 3.69719 43.3333 3.86547V4.03374C43.1507 4.03374 43.0289 4.11788 42.968 4.28615C42.968 4.5666 43.0594 4.73488 43.242 4.79097V5.12752C43.1811 5.2397 43.1507 5.37993 43.1507 5.5482C43.0289 5.66038 42.968 5.74452 42.968 5.80061C42.968 6.02498 43.0289 6.1652 43.1507 6.22129V7.1468L42.968 7.31507C42.968 7.48335 42.9985 7.62357 43.0594 7.73576C43.0594 7.90403 43.0594 8.10035 43.0594 8.32472C43.0594 8.49299 43.0289 8.66126 42.968 8.82953V9.08195C42.9072 10.0916 42.8158 11.1293 42.6941 12.195C42.5723 13.2046 42.4201 14.2143 42.2374 15.2239C42.1766 15.7848 42.1157 16.3738 42.0548 16.9908C41.933 17.5517 41.6591 18.0565 41.2329 18.5053C40.8067 18.954 40.2587 19.3466 39.589 19.6832C38.8584 20.0197 38.2192 20.3282 37.6712 20.6087C36.6362 21.1135 35.6317 21.6464 34.6575 22.2073C33.6834 22.7121 32.7093 23.245 31.7352 23.8059C30.5784 24.4229 29.4216 25.0399 28.2648 25.6569C27.1081 26.2178 25.9513 26.8067 24.7945 27.4238C24.4292 27.6481 24.0335 27.7883 23.6073 27.8444C23.1811 27.9005 22.968 28.209 22.968 28.7699C22.9072 29.1626 22.9985 29.443 23.242 29.6113C23.4247 29.7235 23.6682 29.8357 23.9726 29.9479C24.1552 30.0039 24.3683 30.0881 24.6119 30.2003C24.8554 30.3685 25.0989 30.5368 25.3425 30.7051C25.586 30.8173 25.8295 30.9575 26.0731 31.1258C27.3516 31.855 28.6606 32.5561 30 33.2292C31.3394 33.9023 32.6788 34.6034 34.0183 35.3326C34.0791 35.3326 34.14 35.3606 34.2009 35.4167C34.2009 35.4167 34.2314 35.4167 34.2922 35.4167C34.2922 35.4728 34.3531 35.557 34.4749 35.6692L35.5708 36.0898C35.5708 36.1459 35.6012 36.174 35.6621 36.174C35.7839 36.3422 35.8752 36.4544 35.9361 36.5105L37.1233 37.0153C37.1233 37.1275 37.2146 37.2397 37.3973 37.3519L38.0365 37.6043C38.0974 37.6604 38.1887 37.7165 38.3105 37.7726C38.3714 37.8287 38.4627 37.8848 38.5845 37.9408C38.7062 38.053 38.9193 38.1933 39.2237 38.3615C39.3455 38.4176 39.4977 38.5018 39.6804 38.6139C39.863 38.7261 40.0152 38.8383 40.137 38.9505C40.4414 39.1748 40.7763 39.3992 41.1416 39.6236C41.5068 39.7919 41.8113 40.0162 42.0548 40.2967C42.4201 40.8015 42.6332 41.3063 42.6941 41.8111C42.7549 42.2599 42.7854 42.7647 42.7854 43.3256V43.6621C42.7854 44.2231 42.7854 44.812 42.7854 45.429C42.7245 46.046 42.6941 46.663 42.6941 47.28C42.6332 48.1775 42.6027 49.103 42.6027 50.0565C42.5419 50.954 42.5114 51.8795 42.5114 52.833V54.4316C42.5114 54.4877 42.5419 54.5438 42.6027 54.5999C42.6027 54.656 42.6027 54.7401 42.6027 54.8523C42.7245 55.245 42.7245 55.5254 42.6027 55.6937C42.3592 56.1985 41.6895 56.6472 40.5936 57.0399ZM41.1416 2.85583C41.446 3.13628 41.933 3.22042 42.6027 3.10824C42.3592 2.93996 42.1461 2.74365 41.9635 2.51928C41.8417 2.57537 41.7504 2.60342 41.6895 2.60342C41.6286 2.60342 41.5677 2.63146 41.5068 2.68755C41.5068 2.68755 41.3851 2.74364 41.1416 2.85583Z" fill="#0F0F0F"/>
<path d="M41.5982 0.752407C41.4155 0.752407 41.2938 0.780452 41.2329 0.836543C41.2329 0.836543 41.3851 0.724362 41.6895 0.5C41.5068 0.55609 41.3242 0.612181 41.1416 0.668271C40.898 0.724362 40.6849 0.808499 40.5023 0.920683C39.9543 1.14504 39.4368 1.45355 38.9498 1.84619C38.4018 2.18273 37.8539 2.51928 37.3059 2.85583C36.5145 3.30455 35.723 3.75328 34.9315 4.20201C34.14 4.65074 33.3486 5.09947 32.5571 5.5482C32.5571 5.5482 32.5571 5.57625 32.5571 5.63234C32.4962 5.63234 32.4353 5.63234 32.3744 5.63234C32.3744 5.68843 32.3744 5.71648 32.3744 5.71648C32.3135 5.71648 32.2831 5.74452 32.2831 5.80061C31.0046 6.86634 29.5434 7.73576 27.8995 8.40885C26.2557 9.02585 24.5814 9.64286 22.8767 10.2599C21.172 10.8769 19.7108 11.7743 18.4931 12.9522C16.9102 14.1301 15.2359 15.2239 13.4703 16.2336C11.7047 17.2432 10.0609 18.3931 8.53881 19.6832C7.68645 20.2441 6.77321 20.833 5.79909 21.45C4.82496 22.011 3.91172 22.5999 3.05936 23.2169C2.69406 23.4413 2.29833 23.6937 1.87214 23.9741C1.44597 24.1985 1.11111 24.5351 0.86758 24.9838C0.563166 25.3764 0.380516 25.7971 0.319631 26.2458C0.197867 26.6946 0.106544 27.1433 0.0456615 27.592C-0.0152205 27.7603 -0.0152205 27.9286 0.0456615 28.0968C0.0456615 28.2651 0.0456615 28.4334 0.0456615 28.6017C0.0456615 28.6578 0.0761025 28.7138 0.136985 28.7699C0.136985 28.826 0.136985 28.9102 0.136985 29.0223C0.197867 29.9198 0.258749 30.7892 0.319631 31.6306C0.380516 32.472 0.715373 33.2572 1.3242 33.9864C1.75038 34.5473 2.32876 35.0241 3.05936 35.4167C3.78995 35.7533 4.4901 36.0618 5.15982 36.3422C5.89041 36.7349 6.59056 37.1275 7.26027 37.5202C7.92998 37.8567 8.59969 38.2493 9.2694 38.6981C10.7915 39.8199 12.4353 40.8295 14.2009 41.727C15.9665 42.6245 17.5799 43.6902 19.0411 44.9242C20.6849 46.4387 22.5419 47.7848 24.6119 48.9628C26.621 50.0846 28.4475 51.4027 30.0913 52.9172C30.0913 52.9172 30.0913 52.9452 30.0913 53.0013C30.0913 53.0013 30.1218 53.0013 30.1826 53.0013L30.274 53.0855C31.2481 53.7585 32.2831 54.4316 33.379 55.1047C34.414 55.7778 35.449 56.4229 36.484 57.0399C37.2146 57.4886 37.9756 57.9373 38.7671 58.3861C39.4977 58.8348 40.2892 59.1994 41.1416 59.4798C41.6286 59.7042 42.1157 59.592 42.6027 59.1433C42.6636 59.0311 42.7245 58.947 42.7854 58.8909C42.7854 58.8348 42.8158 58.7787 42.8767 58.7226L44.1553 59.3116L45.4338 59.8164L46.8036 60.4053C46.9863 60.5736 47.1689 60.5175 47.3516 60.2371C47.4734 60.1249 47.4429 59.9847 47.2603 59.8164H47.4429C47.6865 59.8725 47.8691 59.7883 47.9909 59.564C47.9909 59.3396 47.8995 59.1994 47.7169 59.1433L46.0731 58.7226L44.5205 58.3019L43.3333 57.9654C43.8204 57.6288 44.2161 57.2362 44.5205 56.7875L46.1644 57.3764L48.9041 58.3861C49.0868 58.5543 49.2694 58.4982 49.4521 58.2178C49.5738 57.9934 49.5129 57.8252 49.2694 57.713L47.8995 57.124L46.4384 56.7033L44.7945 56.1144C44.8554 55.8339 44.8554 55.5815 44.7945 55.3571L46.2557 55.9461L47.7169 56.3668L49.0868 56.7033C49.3303 56.7594 49.5129 56.6753 49.6347 56.4509C49.6347 56.2266 49.5434 56.0863 49.3607 56.0302L47.8995 55.6096L46.5297 55.273L44.7032 54.5158V53.8427L46.1644 54.4316L47.7169 54.8523L48.9954 55.273C49.239 55.3291 49.4216 55.273 49.5434 55.1047C49.6651 54.8804 49.5738 54.7121 49.2694 54.5999L47.9909 54.0951H47.8995L46.4384 53.7585L44.7032 53.0013V52.833C44.7032 52.5526 44.7336 52.3282 44.7945 52.16L47.7169 53.5061H47.8082L49.1781 53.8427C49.4216 53.8988 49.6043 53.8146 49.726 53.5903C49.726 53.3659 49.6347 53.2257 49.4521 53.1696L48.0822 52.7489L46.621 52.16L45.1598 51.4869C45.1598 51.4869 45.1294 51.4869 45.0685 51.4869C45.0076 51.4869 44.8858 51.4588 44.7032 51.4027V50.7296L45.8904 51.2344L47.5342 51.6551L49.0868 52.16C49.3303 52.216 49.5129 52.16 49.6347 51.9917C49.7565 51.7673 49.6651 51.599 49.3607 51.4869L47.8082 50.8979H47.7169L46.1644 50.5614L44.8858 49.9724H44.7945V49.3834L46.347 49.8041L47.8082 50.3931L49.2694 50.8138C49.5129 50.8699 49.6956 50.8138 49.8173 50.6455C49.9391 50.4211 49.8478 50.2529 49.5434 50.1407L48.1735 49.6358L46.621 49.131L44.7945 48.5421V47.9531L46.1644 48.4579L47.6256 49.131L49.2694 49.6358C49.5129 49.6919 49.6956 49.6358 49.8173 49.4676C49.9391 49.2432 49.8478 49.0749 49.5434 48.9628L46.4384 47.7848L44.8858 47.1117V46.1021L46.2557 46.4387L47.6256 47.0276H47.7169L49.2694 47.3642C49.5129 47.4202 49.6956 47.3361 49.8173 47.1117C49.8173 46.8874 49.726 46.7472 49.5434 46.6911L47.8995 46.2704L46.5297 45.7656L44.8858 45.2607V44.8401L46.0731 45.3449L47.6256 45.7656L48.9041 46.1021C49.1476 46.1582 49.3303 46.1021 49.4521 45.9338C49.4521 45.6534 49.3607 45.4851 49.1781 45.429L47.8082 45.0083L46.347 44.6718L44.9772 44.0828V43.3256L46.1644 43.8304L47.6256 44.5035L49.2694 45.0083C49.5129 45.0644 49.6956 45.0083 49.8173 44.8401C49.9391 44.6157 49.8478 44.4474 49.5434 44.3352L47.9909 43.7463L46.5297 43.1573L45.0685 42.4842H44.9772C44.9772 42.2599 44.9772 42.0635 44.9772 41.8953C44.9163 41.6709 44.8554 41.4465 44.7945 41.2222L45.3425 41.4746H45.4338L46.895 41.8111L48.2648 42.2318C48.3257 42.2879 48.417 42.2879 48.5388 42.2318C48.6606 42.1196 48.7215 42.0355 48.7215 41.9794C48.8432 41.755 48.7519 41.5868 48.4475 41.4746L47.1689 41.138L46.1644 40.8856L46.4384 40.6332C46.5601 40.4089 46.4688 40.2406 46.1644 40.1284L44.8858 39.6236L43.9726 39.3712C43.9726 39.259 43.9422 39.2029 43.8813 39.2029C43.8813 39.1468 43.8813 39.1188 43.8813 39.1188C43.8204 39.0627 43.79 39.0346 43.79 39.0346C43.4855 38.642 43.1202 38.3335 42.6941 38.1091C42.2679 37.8287 41.8721 37.5762 41.5068 37.3519C40.7763 36.8471 40.0457 36.3703 39.3151 35.9216C38.5845 35.4728 37.8234 35.0241 37.032 34.5754C37.032 34.4632 36.8798 34.3791 36.5753 34.323C36.3318 34.2108 36.1187 34.0986 35.9361 33.9864C35.6925 33.8742 35.4795 33.7621 35.2968 33.6499C35.2359 33.4816 34.9924 33.3694 34.5662 33.3133C33.3485 32.6963 32.1309 32.0793 30.9132 31.4623C29.6347 30.8453 28.417 30.1722 27.2603 29.443C27.1994 29.3869 27.1689 29.3589 27.1689 29.3589L28.7215 29.8637L30.0913 30.5368L31.7352 31.1258C31.9178 31.294 32.1005 31.2379 32.2831 30.9575C32.4049 30.7331 32.3135 30.5649 32.0091 30.4527L30.4566 29.8637L29.0868 29.1906H28.9954L27.5342 28.6017H27.4429L27.1689 28.5175L27.7169 28.2651L28.7215 28.6017L30.0913 29.1065L31.6438 29.6954H31.7352L33.1963 30.1161C33.4399 30.1161 33.6225 30.032 33.7443 29.8637C33.7443 29.5833 33.6225 29.415 33.379 29.3589L31.9178 28.9382L30.3653 28.4334L29.0868 27.8444C29.0259 27.8444 28.8737 27.8164 28.6301 27.7603C28.691 27.7042 28.7823 27.6481 28.9041 27.592C29.0259 27.5359 29.1476 27.4798 29.2694 27.4238L30.1826 27.7603L33.105 28.6017L34.6575 29.0223C34.9619 29.1345 35.1142 29.0504 35.1142 28.7699C35.175 28.4895 35.0837 28.3212 34.8402 28.2651L33.379 27.8444L31.9178 27.5079L30.1826 26.9189C30.2435 26.8628 30.3349 26.8067 30.4566 26.7507C30.5784 26.6946 30.7001 26.6385 30.8219 26.5824L31.5525 26.8348L32.831 27.2555L34.3836 27.9286L35.9361 28.3493C36.2405 28.4614 36.3927 28.3773 36.3927 28.0968C36.5145 27.8725 36.4231 27.7042 36.1187 27.592L34.6575 27.2555L33.1963 26.5824L31.8265 26.0776C31.8874 26.0215 32.0396 25.9373 32.2831 25.8252L33.105 26.0776L34.7489 26.4982L36.1187 27.0031L37.6712 27.5079C37.7321 27.564 37.8234 27.564 37.9452 27.5079C38.067 27.3957 38.1278 27.3116 38.1278 27.2555C38.2496 27.0311 38.1887 26.8628 37.9452 26.7507L36.3927 26.33L35.0228 25.741H34.9315L33.1963 25.3203C33.4399 25.2082 33.6225 25.096 33.7443 24.9838L34.5662 25.3203L35.8447 25.8252L37.3973 26.2458L38.9498 26.8348C39.1933 26.8909 39.3759 26.8067 39.4977 26.5824C39.6195 26.4141 39.5586 26.2739 39.3151 26.1617L37.6712 25.5727L36.21 25.0679L34.6575 24.5631C34.7184 24.4509 34.8402 24.3668 35.0228 24.3107C35.1446 24.2546 35.2664 24.1985 35.3881 24.1424L36.0274 24.3107L37.5799 24.8997L39.0411 25.4886L40.5936 25.9934C40.8371 26.0495 41.0198 25.9654 41.1416 25.741C41.2633 25.5167 41.172 25.3484 40.8676 25.2362L39.3151 24.8155L37.9452 24.2266V24.1424L36.3014 23.6376C36.5449 23.5254 36.7275 23.4132 36.8493 23.3011L37.3973 23.4693L38.7671 23.9741H38.8584L40.411 24.3948L41.7808 24.8997C42.0244 24.9557 42.207 24.8996 42.3288 24.7314C42.4505 24.507 42.3896 24.3387 42.1461 24.2266L40.6849 23.6376H40.5936L39.0411 23.2169L37.8539 22.7962L38.4018 22.5438L39.0411 22.628L40.3196 23.3011L41.5982 23.8059L41.6895 23.89L43.1507 24.2266C43.3942 24.2826 43.5769 24.1985 43.6986 23.9741C43.8204 23.6937 43.7291 23.5535 43.4247 23.5535L41.9635 23.1328L40.6849 22.628L39.4064 22.039C39.5282 21.9829 39.6499 21.8988 39.7717 21.7866L40.411 22.039H40.5023L41.8721 22.4597L43.4247 22.9645L44.7945 23.4693C45.038 23.5254 45.2207 23.4693 45.3425 23.3011C45.4642 23.0767 45.3729 22.9084 45.0685 22.7962L43.6986 22.2073L42.1461 21.7025L40.7763 21.3659C40.9589 21.1976 41.2938 21.0855 41.7808 21.0294L43.242 21.6183L44.5205 22.2914H44.6119L46.1644 22.7121C46.4079 22.7682 46.5906 22.7121 46.7123 22.5438C46.7123 22.2634 46.621 22.0951 46.4384 22.039L44.8858 21.5342L43.6073 20.9452H43.516L42.2374 20.4404L42.968 19.7673C43.0898 19.6551 43.1811 19.5429 43.242 19.4308L45.2511 20.3563C45.2511 20.3563 45.2816 20.3563 45.3425 20.3563C45.3425 20.3563 45.3425 20.3843 45.3425 20.4404L46.895 20.777L48.3562 21.45C48.5997 21.5622 48.7823 21.5061 48.9041 21.2818C49.0259 21.0574 48.9346 20.8891 48.6301 20.777L47.2603 20.1039H47.1689L45.6164 19.6832L43.6073 18.7577C43.7291 18.4772 43.8508 18.2248 43.9726 18.0004C44.0944 17.7761 44.3075 17.5517 44.6119 17.3273L45.8904 17.6639L47.3516 18.2528H47.4429L48.8128 18.5894C49.0563 18.6455 49.239 18.5613 49.3607 18.337C49.3607 18.1126 49.2694 17.9724 49.0868 17.9163L47.6256 17.4956L46.1644 16.9908L44.7945 16.5701L44.3379 16.4018C44.3379 16.1214 44.4597 15.9251 44.7032 15.8129L46.2557 16.4018L47.8082 16.8225L49.3607 17.3273C49.6043 17.3834 49.7869 17.3273 49.9087 17.1591C50.0304 16.9347 49.9391 16.7664 49.6347 16.6542L48.0822 16.0653H47.9909L46.5297 15.7287L44.9772 15.1398L44.5205 14.9715C44.5205 14.8032 44.6119 14.635 44.7945 14.4667C44.8554 14.4667 44.8858 14.4947 44.8858 14.5508L46.347 14.8874L47.8082 15.5605L49.1781 16.1494C49.3607 16.3177 49.5434 16.2616 49.726 15.9812C49.7869 15.8129 49.726 15.6446 49.5434 15.4763L48.1735 14.8032L46.7123 14.2143H46.621L44.7032 13.6253C44.7641 13.5131 44.7945 13.3729 44.7945 13.2046C44.7945 13.0364 44.825 12.8681 44.8858 12.6998L46.4384 13.3729L47.8995 13.8777L49.3607 14.2984C49.6043 14.3545 49.7869 14.2984 49.9087 14.1301C49.9087 13.8497 49.8173 13.6814 49.6347 13.6253L48.1735 13.1205L46.7123 12.6998L45.1598 12.0267H45.0685L44.8858 11.9426C44.9467 11.8304 44.9772 11.606 44.9772 11.2695L46.2557 11.6902L47.6256 12.3633L49.0868 12.8681C49.3303 12.9803 49.5129 12.9242 49.6347 12.6998C49.7565 12.4755 49.6651 12.3072 49.3607 12.195L46.621 11.0171H46.5297L45.1598 10.5123H45.0685V10.0916L45.9817 10.4281L47.5342 10.8488L48.9041 11.2695C49.1476 11.3256 49.3303 11.2695 49.4521 11.1012C49.5738 10.8769 49.4825 10.7086 49.1781 10.5964L47.8082 10.0916H47.7169L46.2557 9.75504L45.1598 9.33435C45.1598 9.16608 45.1903 9.02585 45.2511 8.91367C45.2511 8.7454 45.2511 8.60517 45.2511 8.49299L46.4384 8.99781L47.8082 9.6709H47.8995L49.4521 10.0916C49.6956 10.1477 49.8782 10.0916 50 9.92331C50 9.64286 49.9087 9.47458 49.726 9.41849L48.1735 8.91367L45.2511 7.73576C45.2511 7.62357 45.2816 7.51139 45.3425 7.39921C45.3425 7.23094 45.3425 7.06266 45.3425 6.89439L46.1644 7.23094L47.7169 7.81989L49.0868 8.40885C49.2694 8.57713 49.4521 8.52103 49.6347 8.24057C49.6956 8.0723 49.6347 7.90403 49.4521 7.73576L48.0822 7.1468V7.06266L46.4384 6.55784L45.3425 6.13716V5.46406L46.2557 5.71648L47.5342 6.22129L49.0868 6.72612C49.3303 6.78221 49.5129 6.72612 49.6347 6.55784C49.7565 6.33348 49.6651 6.1652 49.3607 6.05302L47.8995 5.46406L45.4338 4.70683V4.53856C45.4947 4.42638 45.5251 4.28615 45.5251 4.11788L47.4429 4.70683L48.7215 5.04338C48.965 5.09947 49.1476 5.04338 49.2694 4.87511C49.2694 4.59465 49.1781 4.42638 48.9954 4.37029L46.347 3.61306L45.4338 3.36065C45.4338 3.24846 45.4642 3.19237 45.5251 3.19237H45.6164L47.1689 3.61306C47.4125 3.66915 47.5951 3.61306 47.7169 3.44478C47.7169 3.16433 47.5342 2.96801 47.1689 2.85583L45.8904 2.26687L44.0639 1.67791L43.242 0.920683C43.3638 1.14504 43.4551 1.34136 43.516 1.50964L42.968 1.25723L41.5982 0.752407ZM40.5936 57.0399H40.5023C40.0152 56.7594 39.5282 56.479 39.0411 56.1985C38.554 55.862 38.0974 55.5815 37.6712 55.3571C36.6362 54.7401 35.6012 54.1231 34.5662 53.5061C33.5312 52.833 32.5266 52.16 31.5525 51.4869C29.9087 49.9724 28.0822 48.6543 26.0731 47.5324C24.0639 46.3545 22.2374 44.9803 20.5936 43.4097H20.5023C18.9802 42.1196 17.3364 41.0259 15.5708 40.1284C13.8052 39.2309 12.1613 38.1933 10.6393 37.0153H10.5479C9.87823 36.5666 9.17808 36.1459 8.44749 35.7533C7.71689 35.3606 6.9863 34.968 6.25571 34.5754C5.76864 34.2949 5.2207 34.0425 4.61187 33.8181C3.94216 33.5377 3.42465 33.2011 3.05936 32.8085C2.75495 32.3598 2.5723 31.883 2.51142 31.3782C2.38965 30.8173 2.32876 30.2564 2.32876 29.6954V28.9382C2.32876 28.826 2.32876 28.7419 2.32876 28.6858C2.26788 28.6297 2.23744 28.5736 2.23744 28.5175C2.23744 28.4053 2.23744 28.2932 2.23744 28.181C2.17656 28.0688 2.17656 27.9566 2.23744 27.8444C2.29832 27.564 2.35921 27.2555 2.42009 26.9189C2.42009 26.5824 2.54185 26.3019 2.78539 26.0776C2.96804 25.7971 3.21157 25.5727 3.51598 25.4045C3.82039 25.1801 4.12481 24.9838 4.42922 24.8155C5.28158 24.1424 6.19482 23.5254 7.16895 22.9645C8.08219 22.4036 8.99543 21.8427 9.90867 21.2818C9.96956 21.2818 10 21.2818 10 21.2818C10 21.2257 10 21.1976 10 21.1976C11.5221 19.9075 13.1659 18.7577 14.9315 17.748C16.6971 16.7384 18.3714 15.6446 19.9543 14.4667V14.3826C21.172 13.2607 22.6332 12.3913 24.3379 11.7743C25.9817 11.1573 27.656 10.5403 29.3607 9.92331C31.0046 9.25022 32.4658 8.3808 33.7443 7.31507C34.5358 6.86634 35.3272 6.41761 36.1187 5.96889C36.9102 5.46407 37.7321 4.98729 38.5845 4.53856C39.0107 4.25811 39.4368 3.97765 39.863 3.69719C40.2283 3.36065 40.6545 3.08019 41.1416 2.85583C40.6545 2.51928 40.624 1.95837 41.0502 1.17309C41.0502 1.34136 41.172 1.45355 41.4155 1.50964C41.172 1.67791 41.2329 1.93032 41.5982 2.26687C41.7199 2.37905 41.8417 2.46319 41.9635 2.51928C42.1461 2.51928 42.2983 2.49124 42.4201 2.43514C42.6636 2.32296 42.7854 2.21078 42.7854 2.0986L43.4247 2.43514C43.4247 2.43514 43.4247 2.46319 43.4247 2.51928C43.4247 2.51928 43.3942 2.51928 43.3333 2.51928C43.1507 2.51928 43.0594 2.60342 43.0594 2.77169C42.9985 2.77169 42.968 2.82778 42.968 2.93996C42.9072 2.99605 42.8463 3.0241 42.7854 3.0241C42.7245 3.0241 42.6636 3.05214 42.6027 3.10824C42.968 3.44478 43.2116 3.69719 43.3333 3.86547V4.03374C43.1507 4.03374 43.0289 4.11788 42.968 4.28615C42.968 4.5666 43.0594 4.73488 43.242 4.79097V5.12752C43.1811 5.2397 43.1507 5.37993 43.1507 5.5482C43.0289 5.66038 42.968 5.74452 42.968 5.80061C42.968 6.02498 43.0289 6.1652 43.1507 6.22129V7.1468L42.968 7.31507C42.968 7.48335 42.9985 7.62357 43.0594 7.73576C43.0594 7.90403 43.0594 8.10035 43.0594 8.32472C43.0594 8.49299 43.0289 8.66126 42.968 8.82953V9.08195C42.9072 10.0916 42.8158 11.1293 42.6941 12.195C42.5723 13.2046 42.4201 14.2143 42.2374 15.2239C42.1766 15.7848 42.1157 16.3738 42.0548 16.9908C41.933 17.5517 41.6591 18.0565 41.2329 18.5053C40.8067 18.954 40.2587 19.3466 39.589 19.6832C38.8584 20.0197 38.2192 20.3282 37.6712 20.6087C36.6362 21.1135 35.6317 21.6464 34.6575 22.2073C33.6834 22.7121 32.7093 23.245 31.7352 23.8059C30.5784 24.4229 29.4216 25.0399 28.2648 25.6569C27.1081 26.2178 25.9513 26.8067 24.7945 27.4238C24.4292 27.6481 24.0335 27.7883 23.6073 27.8444C23.1811 27.9005 22.968 28.209 22.968 28.7699C22.9072 29.1626 22.9985 29.443 23.242 29.6113C23.4247 29.7235 23.6682 29.8357 23.9726 29.9479C24.1552 30.0039 24.3683 30.0881 24.6119 30.2003C24.8554 30.3685 25.0989 30.5368 25.3425 30.7051C25.586 30.8173 25.8295 30.9575 26.0731 31.1258C27.3516 31.855 28.6606 32.5561 30 33.2292C31.3394 33.9023 32.6788 34.6034 34.0183 35.3326C34.0791 35.3326 34.14 35.3606 34.2009 35.4167C34.2009 35.4167 34.2314 35.4167 34.2922 35.4167C34.2922 35.4728 34.3531 35.557 34.4749 35.6692L35.5708 36.0898C35.5708 36.1459 35.6012 36.174 35.6621 36.174C35.7839 36.3422 35.8752 36.4544 35.9361 36.5105L37.1233 37.0153C37.1233 37.1275 37.2146 37.2397 37.3973 37.3519L38.0365 37.6043C38.0974 37.6604 38.1887 37.7165 38.3105 37.7726C38.3714 37.8287 38.4627 37.8848 38.5845 37.9408C38.7062 38.053 38.9193 38.1933 39.2237 38.3615C39.3455 38.4176 39.4977 38.5018 39.6804 38.6139C39.863 38.7261 40.0152 38.8383 40.137 38.9505C40.4414 39.1748 40.7763 39.3992 41.1416 39.6236C41.5068 39.7919 41.8113 40.0162 42.0548 40.2967C42.4201 40.8015 42.6332 41.3063 42.6941 41.8111C42.7549 42.2599 42.7854 42.7647 42.7854 43.3256V43.6621C42.7854 44.2231 42.7854 44.812 42.7854 45.429C42.7245 46.046 42.6941 46.663 42.6941 47.28C42.6332 48.1775 42.6027 49.103 42.6027 50.0565C42.5419 50.954 42.5114 51.8795 42.5114 52.833V54.4316C42.5114 54.4877 42.5419 54.5438 42.6027 54.5999C42.6027 54.656 42.6027 54.7401 42.6027 54.8523C42.7245 55.245 42.7245 55.5254 42.6027 55.6937C42.3592 56.1985 41.6895 56.6472 40.5936 57.0399ZM41.1416 2.85583C41.446 3.13628 41.933 3.22042 42.6027 3.10824C42.3592 2.93996 42.1461 2.74365 41.9635 2.51928C41.8417 2.57537 41.7504 2.60342 41.6895 2.60342C41.6286 2.60342 41.5677 2.63146 41.5068 2.68755C41.5068 2.68755 41.3851 2.74364 41.1416 2.85583Z" fill="black" fill-opacity="0.2"/>
</svg>
