<svg width="32" height="33" viewBox="0 0 32 33" fill="none" xmlns="http://www.w3.org/2000/svg">
<path d="M16 19.2507C14.5 19.2507 13.2 18.0507 13.2 16.4507C13.2 14.9507 14.4 13.6507 16 13.6507C17.5 13.6507 18.8 14.8507 18.8 16.4507C18.8 17.9507 17.5 19.2507 16 19.2507Z" fill="#0F0F0F"/>
<path fill-rule="evenodd" clip-rule="evenodd" d="M19.4 9.65068H12.6C11.8 9.75068 11.4 9.85068 11.1 9.95068C10.7 10.0507 10.4 10.2507 10.1 10.5507C9.86261 10.7881 9.75045 11.0255 9.61489 11.3124C9.57916 11.388 9.5417 11.4673 9.5 11.5507C9.48453 11.5971 9.46667 11.6459 9.44752 11.6982C9.34291 11.984 9.2 12.3744 9.2 13.0507V19.8507C9.3 20.6507 9.4 21.0507 9.5 21.3507C9.6 21.7507 9.8 22.0507 10.1 22.3507C10.3374 22.5881 10.5748 22.7002 10.8617 22.8358C10.9374 22.8716 11.0165 22.9089 11.1 22.9507C11.1464 22.9662 11.1952 22.984 11.2475 23.0032C11.5333 23.1078 11.9238 23.2507 12.6 23.2507H19.4C20.2 23.1507 20.6 23.0507 20.9 22.9507C21.3 22.8507 21.6 22.6507 21.9 22.3507C22.1374 22.1133 22.2495 21.8759 22.3851 21.589C22.4209 21.5133 22.4583 21.4341 22.5 21.3507C22.5155 21.3043 22.5333 21.2555 22.5525 21.2032C22.6571 20.9173 22.8 20.5269 22.8 19.8507V13.0507C22.7 12.2507 22.6 11.8507 22.5 11.5507C22.4 11.1507 22.2 10.8507 21.9 10.5507C21.6626 10.3133 21.4252 10.2011 21.1383 10.0656C21.0627 10.0299 20.9833 9.99235 20.9 9.95068C20.8536 9.93521 20.8048 9.91735 20.7525 9.8982C20.4667 9.79359 20.0762 9.65068 19.4 9.65068ZM16 12.1507C13.6 12.1507 11.7 14.0507 11.7 16.4507C11.7 18.8507 13.6 20.7507 16 20.7507C18.4 20.7507 20.3 18.8507 20.3 16.4507C20.3 14.0507 18.4 12.1507 16 12.1507ZM21.4 12.0507C21.4 12.603 20.9523 13.0507 20.4 13.0507C19.8477 13.0507 19.4 12.603 19.4 12.0507C19.4 11.4984 19.8477 11.0507 20.4 11.0507C20.9523 11.0507 21.4 11.4984 21.4 12.0507Z" fill="#0F0F0F"/>
<path fill-rule="evenodd" clip-rule="evenodd" d="M0 16.4507C0 7.61413 7.16344 0.450684 16 0.450684C24.8366 0.450684 32 7.61413 32 16.4507C32 25.2872 24.8366 32.4507 16 32.4507C7.16344 32.4507 0 25.2872 0 16.4507ZM12.6 8.15068H19.4C20.3 8.25068 20.9 8.35068 21.4 8.55068C22 8.85068 22.4 9.05068 22.9 9.55068C23.4 10.0507 23.7 10.5507 23.9 11.0507C24.1 11.5507 24.3 12.1507 24.3 13.0507V19.8507C24.2 20.7507 24.1 21.3507 23.9 21.8507C23.6 22.4507 23.4 22.8507 22.9 23.3507C22.4 23.8507 21.9 24.1507 21.4 24.3507C20.9 24.5507 20.3 24.7507 19.4 24.7507H12.6C11.7 24.6507 11.1 24.5507 10.6 24.3507C10 24.0507 9.6 23.8507 9.1 23.3507C8.6 22.8507 8.3 22.3507 8.1 21.8507C7.9 21.3507 7.7 20.7507 7.7 19.8507V13.0507C7.8 12.1507 7.9 11.5507 8.1 11.0507C8.4 10.4507 8.6 10.0507 9.1 9.55068C9.6 9.05068 10.1 8.75068 10.6 8.55068C11.1 8.35068 11.7 8.15068 12.6 8.15068Z" fill="#0F0F0F"/>
</svg>
